<?xml version="1.0" encoding="UTF-8"?><svg id="Layer_1" xmlns="http://www.w3.org/2000/svg" viewBox="0 0 1520 460"><defs><style>.cls-1{fill:#e6e6e6;}.cls-2{fill:#fdd975;}.cls-3{fill:#fff;}</style></defs><g><rect class="cls-3" x="10" y="10.62" width="1500" height="440" rx="140" ry="140"/><path class="cls-2" d="M1370,20.62c34.72,0,67.37,13.52,91.92,38.08,24.55,24.55,38.08,57.2,38.08,91.92v160c0,34.72-13.52,67.37-38.08,91.92-24.55,24.55-57.2,38.08-91.92,38.08H150c-34.72,0-67.37-13.52-91.92-38.08-24.55-24.55-38.08-57.2-38.08-91.92V150.62c0-34.72,13.52-67.37,38.08-91.92,24.55-24.55,57.2-38.08,91.92-38.08H1370m0-20H150C67.16,.62,0,67.78,0,150.62v160c0,82.84,67.16,150,150,150H1370c82.84,0,150-67.16,150-150V150.62c0-82.84-67.16-150-150-150h0Z"/></g><g><rect class="cls-1" x="360" y="0" width="800" height="140" rx="60" ry="60"/><rect class="cls-2" x="360" y="0" width="800" height="120" rx="60" ry="60"/></g><g><path class="cls-3" d="M627.09,59.56l9.11,2.89c-1.4,5.08-3.72,8.85-6.97,11.31s-7.37,3.7-12.36,3.7c-6.18,0-11.26-2.11-15.23-6.33-3.98-4.22-5.97-9.99-5.97-17.31,0-7.74,2-13.76,6-18.04,4-4.29,9.26-6.43,15.77-6.43,5.69,0,10.31,1.68,13.87,5.05,2.12,1.99,3.7,4.85,4.76,8.57l-9.3,2.22c-.55-2.41-1.7-4.32-3.44-5.71-1.75-1.4-3.87-2.09-6.36-2.09-3.45,0-6.25,1.24-8.39,3.71-2.15,2.48-3.22,6.49-3.22,12.03,0,5.88,1.06,10.07,3.17,12.57,2.12,2.5,4.87,3.75,8.25,3.75,2.5,0,4.64-.79,6.44-2.38,1.8-1.59,3.09-4.08,3.87-7.49Z"/><path class="cls-3" d="M642.13,59.34c0-2.96,.73-5.83,2.19-8.6,1.46-2.77,3.53-4.89,6.2-6.35s5.67-2.19,8.97-2.19c5.1,0,9.28,1.66,12.54,4.97,3.26,3.31,4.89,7.5,4.89,12.55s-1.65,9.33-4.94,12.68-7.43,5.03-12.42,5.03c-3.09,0-6.04-.7-8.84-2.09s-4.94-3.44-6.39-6.14c-1.46-2.7-2.19-5.98-2.19-9.85Zm9.14,.48c0,3.34,.79,5.9,2.38,7.68,1.59,1.78,3.54,2.67,5.87,2.67s4.28-.89,5.86-2.67,2.36-4.36,2.36-7.74-.79-5.84-2.36-7.62-3.53-2.67-5.86-2.67-4.28,.89-5.87,2.67c-1.59,1.78-2.38,4.34-2.38,7.68Z"/><path class="cls-3" d="M683.23,42.96h8.22v4.6c2.94-3.58,6.44-5.36,10.51-5.36,2.16,0,4.03,.44,5.62,1.33,1.59,.89,2.89,2.23,3.9,4.03,1.48-1.8,3.08-3.14,4.79-4.03,1.71-.89,3.54-1.33,5.49-1.33,2.48,0,4.57,.5,6.28,1.51s2.99,2.48,3.84,4.43c.61,1.44,.92,3.77,.92,6.98v21.55h-8.92v-19.27c0-3.34-.31-5.5-.92-6.47-.83-1.27-2.09-1.9-3.81-1.9-1.25,0-2.42,.38-3.52,1.14-1.1,.76-1.89,1.88-2.38,3.35-.49,1.47-.73,3.79-.73,6.97v16.19h-8.92v-18.47c0-3.28-.16-5.4-.48-6.35-.32-.95-.81-1.66-1.48-2.13-.67-.46-1.57-.7-2.71-.7-1.38,0-2.61,.37-3.71,1.11-1.1,.74-1.89,1.81-2.36,3.21-.48,1.4-.71,3.71-.71,6.95v16.38h-8.92V42.96Z"/><path class="cls-3" d="M741.44,42.96h8.31v4.95c1.08-1.69,2.54-3.07,4.38-4.13,1.84-1.06,3.88-1.59,6.12-1.59,3.91,0,7.24,1.53,9.97,4.6,2.73,3.07,4.09,7.34,4.09,12.82s-1.38,10-4.13,13.12c-2.75,3.12-6.08,4.68-10,4.68-1.86,0-3.55-.37-5.06-1.11s-3.11-2.01-4.78-3.81v16.98h-8.92V42.96Zm8.82,16.28c0,3.79,.75,6.59,2.25,8.4,1.5,1.81,3.33,2.71,5.49,2.71s3.8-.83,5.17-2.49c1.38-1.66,2.06-4.38,2.06-8.17,0-3.53-.71-6.16-2.13-7.87-1.42-1.71-3.17-2.57-5.27-2.57s-3.99,.84-5.43,2.52c-1.44,1.68-2.16,4.17-2.16,7.47Z"/><path class="cls-3" d="M781.4,76.67V30.14h8.92v46.53h-8.92Z"/><path class="cls-3" d="M818.98,65.94l8.89,1.49c-1.14,3.26-2.95,5.74-5.41,7.44-2.47,1.7-5.55,2.55-9.25,2.55-5.86,0-10.2-1.92-13.01-5.75-2.22-3.07-3.33-6.94-3.33-11.62,0-5.59,1.46-9.96,4.38-13.12s6.61-4.75,11.08-4.75c5.01,0,8.97,1.66,11.87,4.97,2.9,3.31,4.28,8.38,4.16,15.22h-22.34c.06,2.64,.78,4.7,2.16,6.17,1.38,1.47,3.09,2.21,5.14,2.21,1.4,0,2.57-.38,3.52-1.14s1.67-1.99,2.16-3.68Zm.51-9.01c-.06-2.58-.73-4.54-2-5.89s-2.81-2.02-4.63-2.02c-1.95,0-3.55,.71-4.82,2.13s-1.89,3.34-1.87,5.78h13.33Z"/><path class="cls-3" d="M851.06,42.96v7.11h-6.09v13.58c0,2.75,.06,4.35,.17,4.81,.12,.46,.38,.83,.79,1.13,.41,.3,.92,.44,1.51,.44,.83,0,2.02-.29,3.59-.86l.76,6.92c-2.07,.89-4.42,1.33-7.04,1.33-1.61,0-3.06-.27-4.35-.81-1.29-.54-2.24-1.24-2.84-2.09-.6-.86-1.02-2.02-1.25-3.48-.19-1.04-.29-3.13-.29-6.28v-14.69h-4.09v-7.11h4.09v-6.7l8.95-5.21v11.9h6.09Z"/><path class="cls-3" d="M876.77,65.94l8.89,1.49c-1.14,3.26-2.95,5.74-5.41,7.44-2.47,1.7-5.55,2.55-9.25,2.55-5.86,0-10.2-1.92-13.01-5.75-2.22-3.07-3.33-6.94-3.33-11.62,0-5.59,1.46-9.96,4.38-13.12s6.61-4.75,11.08-4.75c5.01,0,8.97,1.66,11.87,4.97,2.9,3.31,4.28,8.38,4.16,15.22h-22.34c.06,2.64,.78,4.7,2.16,6.17,1.38,1.47,3.09,2.21,5.14,2.21,1.4,0,2.57-.38,3.52-1.14s1.67-1.99,2.16-3.68Zm.51-9.01c-.06-2.58-.73-4.54-2-5.89s-2.81-2.02-4.63-2.02c-1.95,0-3.55,.71-4.82,2.13s-1.89,3.34-1.87,5.78h13.33Z"/><path class="cls-3" d="M924.32,76.67h-8.28v-4.95c-1.38,1.93-3,3.36-4.87,4.3-1.87,.94-3.76,1.41-5.67,1.41-3.87,0-7.19-1.56-9.95-4.68-2.76-3.12-4.14-7.47-4.14-13.06s1.34-10.06,4.03-13.03c2.69-2.97,6.08-4.46,10.19-4.46,3.77,0,7.02,1.57,9.78,4.7V30.14h8.92v46.53Zm-23.8-17.58c0,3.6,.5,6.2,1.49,7.81,1.44,2.33,3.45,3.49,6.03,3.49,2.05,0,3.8-.87,5.24-2.62,1.44-1.75,2.16-4.35,2.16-7.82,0-3.87-.7-6.66-2.09-8.36s-3.19-2.56-5.36-2.56-3.89,.84-5.32,2.52c-1.43,1.68-2.14,4.2-2.14,7.54Z"/></g></svg>