<?xml version="1.0" encoding="UTF-8"?><svg id="Layer_1" xmlns="http://www.w3.org/2000/svg" viewBox="0 0 120 300"><defs><style>.cls-1{fill:#fff;}.cls-2{fill:#fdfc96;}.cls-3{fill:#97e47e;}.cls-4{fill:#bfef88;}</style></defs><g><path class="cls-4" d="M60,296.5c-31.15,0-56.5-25.54-56.5-56.94,0-9.86,2.55-19.58,7.38-28.13l.97-1.72-.97-1.72c-4.83-8.55-7.38-18.28-7.38-28.13s2.55-19.58,7.38-28.13l.97-1.72-.97-1.72c-4.83-8.55-7.38-18.27-7.38-28.13s2.55-19.58,7.38-28.13l.97-1.72-.97-1.72c-4.83-8.55-7.38-18.27-7.38-28.13C3.5,29.04,28.85,3.5,60,3.5s56.5,25.54,56.5,56.94c0,9.86-2.55,19.58-7.38,28.13l-.97,1.72,.97,1.72c4.83,8.55,7.38,18.28,7.38,28.13s-2.55,19.58-7.38,28.13l-.97,1.72,.97,1.72c4.83,8.55,7.38,18.28,7.38,28.13s-2.55,19.58-7.38,28.13l-.97,1.72,.97,1.72c4.83,8.55,7.38,18.28,7.38,28.13,0,31.4-25.35,56.94-56.5,56.94Z"/><path class="cls-3" d="M60,7c29.22,0,53,23.97,53,53.44,0,9.25-2.4,18.39-6.93,26.41l-1.95,3.44,1.95,3.44c4.53,8.02,6.93,17.15,6.93,26.41s-2.4,18.39-6.93,26.41l-1.95,3.44,1.95,3.44c4.53,8.02,6.93,17.15,6.93,26.41s-2.4,18.39-6.93,26.41l-1.95,3.44,1.95,3.44c4.53,8.02,6.93,17.15,6.93,26.41,0,29.47-23.78,53.44-53,53.44S7,269.03,7,239.56c0-9.25,2.4-18.39,6.93-26.41l1.95-3.44-1.95-3.44c-4.53-8.02-6.93-17.15-6.93-26.41s2.4-18.39,6.93-26.41l1.95-3.44-1.95-3.44c-4.53-8.02-6.93-17.15-6.93-26.41s2.4-18.39,6.93-26.41l1.95-3.44-1.95-3.44c-4.53-8.02-6.93-17.15-6.93-26.41C7,30.97,30.78,7,60,7m0-7C26.86,0,0,27.06,0,60.44c0,10.86,2.86,21.04,7.84,29.85C2.86,99.1,0,109.29,0,120.15s2.86,21.04,7.84,29.85c-4.98,8.81-7.84,18.99-7.84,29.85s2.86,21.04,7.84,29.85c-4.98,8.81-7.84,18.99-7.84,29.85,0,33.38,26.86,60.44,60,60.44s60-27.06,60-60.44c0-10.86-2.86-21.04-7.84-29.85,4.98-8.81,7.84-18.99,7.84-29.85s-2.86-21.04-7.84-29.85c4.98-8.81,7.84-18.99,7.84-29.85s-2.86-21.04-7.84-29.85c4.98-8.81,7.84-18.99,7.84-29.85C120,27.06,93.14,0,60,0h0Z"/></g><g><ellipse class="cls-2" cx="71.23" cy="46" rx="6.25" ry="9.58"/><g><g><ellipse class="cls-1" cx="47.94" cy="71.06" rx="18.56" ry="14.74"/><path class="cls-3" d="M47.94,56.31c-8.31,0-15.34,4.34-17.71,10.32,2.37,5.98,9.4,10.32,17.71,10.32s15.34-4.34,17.71-10.32c-2.37-5.98-9.4-10.32-17.71-10.32Z"/></g><g><ellipse class="cls-1" cx="47.94" cy="26.83" rx="18.56" ry="14.74"/><path class="cls-3" d="M47.94,12.09c-8.31,0-15.34,4.34-17.71,10.32,2.37,5.98,9.4,10.32,17.71,10.32s15.34-4.34,17.71-10.32c-2.37-5.98-9.4-10.32-17.71-10.32Z"/></g></g></g></svg>