<?xml version="1.0" encoding="UTF-8"?><svg id="Layer_1" xmlns="http://www.w3.org/2000/svg" viewBox="0 0 88 220"><defs><style>.cls-1{fill:#fff;}.cls-2{fill:#fdfc96;}.cls-3{fill:#97e47e;}.cls-4{fill:#bfef88;}</style></defs><g><path class="cls-4" d="M44,217.5c-22.88,0-41.5-18.76-41.5-41.82,0-7.24,1.88-14.38,5.42-20.66l.7-1.23-.7-1.23c-3.55-6.28-5.42-13.42-5.42-20.66s1.88-14.38,5.42-20.66l.7-1.23-.7-1.23c-3.55-6.28-5.42-13.42-5.42-20.66s1.88-14.38,5.42-20.66l.7-1.23-.7-1.23c-3.55-6.28-5.42-13.42-5.42-20.66C2.5,21.26,21.12,2.5,44,2.5s41.5,18.76,41.5,41.82c0,7.24-1.88,14.38-5.42,20.66l-.7,1.23,.7,1.23c3.55,6.28,5.42,13.42,5.42,20.66s-1.88,14.38-5.42,20.66l-.7,1.23,.7,1.23c3.55,6.28,5.42,13.42,5.42,20.66s-1.88,14.38-5.42,20.66l-.7,1.23,.7,1.23c3.55,6.28,5.42,13.42,5.42,20.66,0,23.06-18.62,41.82-41.5,41.82Z"/><path class="cls-3" d="M44,5c21.5,0,39,17.64,39,39.32,0,6.81-1.76,13.53-5.1,19.43l-1.39,2.46,1.39,2.46c3.34,5.9,5.1,12.62,5.1,19.43s-1.76,13.53-5.1,19.43l-1.39,2.46,1.39,2.46c3.34,5.9,5.1,12.62,5.1,19.43s-1.76,13.53-5.1,19.43l-1.39,2.46,1.39,2.46c3.34,5.9,5.1,12.62,5.1,19.43,0,21.68-17.5,39.32-39,39.32S5,197.36,5,175.68c0-6.81,1.76-13.53,5.1-19.43l1.39-2.46-1.39-2.46c-3.34-5.9-5.1-12.62-5.1-19.43s1.76-13.53,5.1-19.43l1.39-2.46-1.39-2.46c-3.34-5.9-5.1-12.62-5.1-19.43s1.76-13.53,5.1-19.43l1.39-2.46-1.39-2.46c-3.34-5.9-5.1-12.62-5.1-19.43C5,22.64,22.5,5,44,5m0-5C19.7,0,0,19.84,0,44.32c0,7.96,2.1,15.43,5.75,21.89-3.65,6.46-5.75,13.93-5.75,21.89s2.1,15.43,5.75,21.89c-3.65,6.46-5.75,13.93-5.75,21.89s2.1,15.43,5.75,21.89c-3.65,6.46-5.75,13.93-5.75,21.89,0,24.48,19.7,44.32,44,44.32s44-19.84,44-44.32c0-7.96-2.1-15.43-5.75-21.89,3.65-6.46,5.75-13.93,5.75-21.89s-2.1-15.43-5.75-21.89c3.65-6.46,5.75-13.93,5.75-21.89s-2.1-15.43-5.75-21.89c3.65-6.46,5.75-13.93,5.75-21.89C88,19.84,68.3,0,44,0h0Z"/></g><g><ellipse class="cls-2" cx="52.23" cy="33.73" rx="4.58" ry="7.03"/><g><g><ellipse class="cls-1" cx="35.15" cy="52.11" rx="13.61" ry="10.81"/><path class="cls-3" d="M35.15,41.3c-6.09,0-11.25,3.18-12.99,7.57,1.73,4.39,6.89,7.57,12.99,7.57s11.25-3.18,12.99-7.57c-1.73-4.39-6.89-7.57-12.99-7.57Z"/></g><g><ellipse class="cls-1" cx="35.15" cy="19.68" rx="13.61" ry="10.81"/><path class="cls-3" d="M35.15,8.86c-6.09,0-11.25,3.18-12.99,7.57,1.73,4.39,6.89,7.57,12.99,7.57s11.25-3.18,12.99-7.57c-1.73-4.39-6.89-7.57-12.99-7.57Z"/></g></g></g></svg>