<?xml version="1.0" encoding="UTF-8"?><svg id="Layer_1" xmlns="http://www.w3.org/2000/svg" viewBox="0 0 100 100"><defs><style>.cls-1{fill:#fff;}.cls-2{fill:#97e47e;}</style></defs><rect class="cls-2" x="16.67" y="25" width="66.67" height="75"/><rect class="cls-2" x="0" y="16.67" width="100" height="8.33" rx="4.17" ry="4.17"/><path class="cls-2" d="M16.67,4v12.67h16.67v-4.34c0-2.21,1.79-4,4-4h25.33c2.21,0,4,1.79,4,4v4.34h16.67V4c0-2.21-1.79-4-4-4H20.67c-2.21,0-4,1.79-4,4Z"/><rect class="cls-1" x="45.83" y="37.5" width="8.33" height="50" rx="4.17" ry="4.17"/><rect class="cls-1" x="62.5" y="37.5" width="8.33" height="50" rx="4.17" ry="4.17"/><rect class="cls-1" x="29.17" y="37.5" width="8.33" height="50" rx="4.17" ry="4.17"/></svg>