<?xml version="1.0" encoding="UTF-8"?><svg id="Layer_1" xmlns="http://www.w3.org/2000/svg" viewBox="0 0 1000 460"><defs><style>.cls-1{fill:#e6e6e6;}.cls-2{fill:#fdd975;}.cls-3,.cls-4{fill:#fff;}.cls-4{font-family:Arial-BoldMT, Arial;font-size:65px;}</style></defs><g><rect class="cls-3" x="10" y="10" width="980" height="440" rx="140" ry="140"/><path class="cls-2" d="M850,20c34.72,0,67.37,13.52,91.92,38.08,24.55,24.55,38.08,57.2,38.08,91.92v160c0,34.72-13.52,67.37-38.08,91.92-24.55,24.55-57.2,38.08-91.92,38.08H150c-34.72,0-67.37-13.52-91.92-38.08-24.55-24.55-38.08-57.2-38.08-91.92V150c0-34.72,13.52-67.37,38.08-91.92,24.55-24.55,57.2-38.08,91.92-38.08H850M850,0H150C67.16,0,0,67.16,0,150v160c0,82.84,67.16,150,150,150H850c82.84,0,150-67.16,150-150V150C1000,67.16,932.84,0,850,0h0Z"/></g><g><rect class="cls-1" x="222.48" y="0" width="555.04" height="140" rx="60" ry="60"/><rect class="cls-2" x="222.48" y="0" width="555.04" height="120" rx="60" ry="60"/></g><text class="cls-4" transform="translate(411.93 87.29)"><tspan x="0" y="0">Steps</tspan></text></svg>