<?xml version="1.0" encoding="UTF-8"?><svg id="Layer_1" xmlns="http://www.w3.org/2000/svg" viewBox="0 0 200 100"><defs><style>.cls-1{fill:#fdd975;}.cls-2{fill:#fff;}</style></defs><rect class="cls-1" x="0" y="0" width="200" height="100" rx="30" ry="30"/><g><path class="cls-2" d="M33.71,56.81l5.65-.89c.32,2.26,1.2,4,2.65,5.21s3.48,1.81,6.08,1.81,4.57-.53,5.84-1.6,1.9-2.32,1.9-3.76c0-1.29-.56-2.31-1.68-3.05-.78-.51-2.73-1.15-5.84-1.94-4.19-1.06-7.09-1.97-8.71-2.75-1.62-.77-2.85-1.84-3.68-3.21-.84-1.36-1.25-2.87-1.25-4.52,0-1.5,.34-2.89,1.03-4.17,.69-1.28,1.62-2.34,2.81-3.19,.89-.66,2.1-1.21,3.63-1.67s3.18-.68,4.94-.68c2.64,0,4.97,.38,6.97,1.14,2,.76,3.47,1.79,4.43,3.09,.95,1.3,1.61,3.04,1.97,5.22l-5.59,.76c-.25-1.73-.99-3.09-2.21-4.06-1.22-.97-2.94-1.46-5.16-1.46-2.62,0-4.5,.43-5.62,1.3-1.12,.87-1.68,1.88-1.68,3.05,0,.74,.23,1.41,.7,2,.47,.61,1.2,1.12,2.19,1.52,.57,.21,2.25,.7,5.05,1.46,4.04,1.08,6.86,1.96,8.46,2.65,1.6,.69,2.85,1.69,3.76,3,.91,1.31,1.36,2.94,1.36,4.89s-.55,3.7-1.67,5.38c-1.11,1.68-2.71,2.98-4.81,3.9-2.09,.92-4.46,1.38-7.11,1.38-4.38,0-7.72-.91-10.01-2.73-2.3-1.82-3.76-4.52-4.4-8.09Z"/><path class="cls-2" d="M90.49,62.71c-2.12,1.8-4.15,3.07-6.11,3.81-1.96,.74-4.06,1.11-6.3,1.11-3.7,0-6.55-.9-8.54-2.71-1.99-1.81-2.98-4.12-2.98-6.93,0-1.65,.38-3.16,1.13-4.52,.75-1.37,1.73-2.46,2.95-3.29s2.59-1.45,4.11-1.87c1.12-.3,2.81-.58,5.08-.86,4.61-.55,8.01-1.21,10.19-1.97,.02-.78,.03-1.28,.03-1.49,0-2.33-.54-3.97-1.62-4.92-1.46-1.29-3.63-1.94-6.51-1.94-2.69,0-4.67,.47-5.95,1.41s-2.23,2.61-2.84,5l-5.59-.76c.51-2.39,1.34-4.32,2.51-5.79,1.16-1.47,2.85-2.6,5.05-3.4,2.2-.79,4.75-1.19,7.65-1.19s5.22,.34,7.01,1.02c1.8,.68,3.12,1.53,3.97,2.55,.85,1.03,1.44,2.32,1.78,3.89,.19,.97,.29,2.73,.29,5.27v7.62c0,5.31,.12,8.67,.36,10.08,.24,1.41,.72,2.76,1.44,4.05h-5.97c-.59-1.18-.97-2.57-1.14-4.16Zm-.48-12.76c-2.07,.85-5.18,1.57-9.33,2.16-2.35,.34-4.01,.72-4.98,1.14-.97,.42-1.72,1.04-2.25,1.86-.53,.81-.79,1.72-.79,2.71,0,1.52,.58,2.79,1.73,3.81s2.84,1.52,5.06,1.52,4.16-.48,5.87-1.44c1.71-.96,2.97-2.28,3.78-3.95,.61-1.29,.92-3.19,.92-5.71v-2.09Z"/><path class="cls-2" d="M114.01,66.87l-12.82-33.71h6.03l7.24,20.19c.78,2.18,1.5,4.44,2.16,6.79,.51-1.78,1.22-3.91,2.13-6.41l7.49-20.57h5.87l-12.76,33.71h-5.33Z"/><path class="cls-2" d="M160.22,56.01l5.9,.73c-.93,3.45-2.66,6.13-5.17,8.03-2.52,1.9-5.73,2.86-9.65,2.86-4.93,0-8.84-1.52-11.73-4.55-2.89-3.04-4.33-7.29-4.33-12.77s1.46-10.07,4.38-13.2c2.92-3.13,6.71-4.7,11.36-4.7s8.19,1.53,11.04,4.6c2.86,3.07,4.28,7.38,4.28,12.95,0,.34-.01,.85-.03,1.52h-25.14c.21,3.7,1.26,6.54,3.14,8.51,1.88,1.97,4.23,2.95,7.05,2.95,2.09,0,3.88-.55,5.36-1.65,1.48-1.1,2.65-2.86,3.52-5.27Zm-18.76-9.24h18.82c-.25-2.83-.97-4.96-2.16-6.38-1.82-2.2-4.18-3.3-7.08-3.3-2.62,0-4.83,.88-6.62,2.63-1.79,1.76-2.78,4.1-2.97,7.05Z"/></g></svg>