<?xml version="1.0" encoding="UTF-8"?><svg id="Layer_1" xmlns="http://www.w3.org/2000/svg" viewBox="0 0 1520 460"><defs><style>.cls-1{fill:#e6e6e6;}.cls-2{fill:#fdd975;}.cls-3{fill:#fff;}</style></defs><g><rect class="cls-3" x="10" y="10.62" width="1500" height="440" rx="140" ry="140"/><path class="cls-2" d="M1370,20.62c34.72,0,67.37,13.52,91.92,38.08,24.55,24.55,38.08,57.2,38.08,91.92v160c0,34.72-13.52,67.37-38.08,91.92-24.55,24.55-57.2,38.08-91.92,38.08H150c-34.72,0-67.37-13.52-91.92-38.08-24.55-24.55-38.08-57.2-38.08-91.92V150.62c0-34.72,13.52-67.37,38.08-91.92,24.55-24.55,57.2-38.08,91.92-38.08H1370m0-20H150C67.16,.62,0,67.78,0,150.62v160c0,82.84,67.16,150,150,150H1370c82.84,0,150-67.16,150-150V150.62c0-82.84-67.16-150-150-150h0Z"/></g><g><rect class="cls-1" x="360" y="0" width="800" height="140" rx="60" ry="60"/><rect class="cls-2" x="360" y="0" width="800" height="120" rx="60" ry="60"/></g><g><path class="cls-3" d="M689.63,82.22V43.57h-13.81v-7.87h36.97v7.87h-13.77v38.66h-9.39Z"/><path class="cls-3" d="M711.91,64.89c0-2.96,.73-5.83,2.19-8.6,1.46-2.77,3.53-4.89,6.2-6.35s5.67-2.19,8.97-2.19c5.1,0,9.28,1.66,12.54,4.97,3.26,3.31,4.89,7.5,4.89,12.55s-1.65,9.33-4.94,12.68-7.43,5.03-12.42,5.03c-3.09,0-6.04-.7-8.84-2.09s-4.94-3.44-6.39-6.14c-1.46-2.7-2.19-5.98-2.19-9.85Zm9.14,.48c0,3.34,.79,5.9,2.38,7.68,1.59,1.78,3.54,2.67,5.87,2.67s4.28-.89,5.86-2.67,2.36-4.36,2.36-7.74-.79-5.84-2.36-7.62-3.53-2.67-5.86-2.67-4.28,.89-5.87,2.67c-1.59,1.78-2.38,4.34-2.38,7.68Z"/><path class="cls-3" d="M802.65,82.22h-8.28v-4.95c-1.38,1.93-3,3.36-4.87,4.3-1.87,.94-3.76,1.41-5.67,1.41-3.87,0-7.19-1.56-9.95-4.68-2.76-3.12-4.14-7.47-4.14-13.06s1.34-10.06,4.03-13.03c2.69-2.97,6.08-4.46,10.19-4.46,3.77,0,7.02,1.57,9.78,4.7v-16.76h8.92v46.53Zm-23.8-17.58c0,3.6,.5,6.2,1.49,7.81,1.44,2.33,3.45,3.49,6.03,3.49,2.05,0,3.8-.87,5.24-2.62,1.44-1.75,2.16-4.35,2.16-7.82,0-3.87-.7-6.66-2.09-8.36s-3.19-2.56-5.36-2.56-3.89,.84-5.32,2.52c-1.43,1.68-2.14,4.2-2.14,7.54Z"/><path class="cls-3" d="M809.37,64.89c0-2.96,.73-5.83,2.19-8.6,1.46-2.77,3.53-4.89,6.2-6.35s5.67-2.19,8.97-2.19c5.1,0,9.28,1.66,12.54,4.97,3.26,3.31,4.89,7.5,4.89,12.55s-1.65,9.33-4.94,12.68-7.43,5.03-12.42,5.03c-3.09,0-6.04-.7-8.84-2.09s-4.94-3.44-6.39-6.14c-1.46-2.7-2.19-5.98-2.19-9.85Zm9.14,.48c0,3.34,.79,5.9,2.38,7.68,1.59,1.78,3.54,2.67,5.87,2.67s4.28-.89,5.86-2.67,2.36-4.36,2.36-7.74-.79-5.84-2.36-7.62-3.53-2.67-5.86-2.67-4.28,.89-5.87,2.67c-1.59,1.78-2.38,4.34-2.38,7.68Z"/></g></svg>