<?xml version="1.0" encoding="UTF-8"?><svg id="Layer_1" xmlns="http://www.w3.org/2000/svg" viewBox="0 0 1300 577"><defs><style>.cls-1{fill:#e6e6e6;}.cls-2{fill:#fff;}.cls-3{fill:#e5f68f;}.cls-4{fill:#bfef88;}</style></defs><rect class="cls-4" width="1300" height="577" rx="110" ry="110"/><rect class="cls-3" width="1300" height="557.14" rx="110" ry="110"/><rect class="cls-1" x="92.86" y="55.71" width="1114.29" height="205" rx="50" ry="50"/><rect class="cls-2" x="92.86" y="55.71" width="1114.29" height="185.71" rx="50" ry="50"/><g><path d="M175.04,166.53h-8.92v-5.33c-1.48,2.07-3.23,3.62-5.25,4.63s-4.05,1.52-6.1,1.52c-4.17,0-7.74-1.68-10.72-5.04-2.97-3.36-4.46-8.05-4.46-14.06s1.45-10.83,4.34-14.03c2.89-3.2,6.55-4.8,10.97-4.8,4.05,0,7.56,1.69,10.53,5.06v-18.05h9.6v50.11Zm-25.63-18.94c0,3.87,.54,6.68,1.61,8.41,1.55,2.51,3.71,3.76,6.49,3.76,2.21,0,4.09-.94,5.64-2.82,1.55-1.88,2.32-4.69,2.32-8.43,0-4.17-.75-7.17-2.26-9.01-1.5-1.83-3.43-2.75-5.78-2.75s-4.19,.91-5.73,2.72-2.31,4.52-2.31,8.12Z"/><path d="M182.28,147.86c0-3.19,.79-6.28,2.36-9.26,1.57-2.98,3.8-5.26,6.68-6.84s6.1-2.36,9.66-2.36c5.49,0,9.99,1.78,13.5,5.35,3.51,3.57,5.26,8.07,5.26,13.52s-1.77,10.04-5.31,13.65c-3.54,3.61-8,5.42-13.38,5.42-3.33,0-6.5-.75-9.52-2.26s-5.31-3.71-6.89-6.61-2.36-6.44-2.36-10.61Zm9.84,.51c0,3.6,.86,6.36,2.56,8.27s3.82,2.87,6.32,2.87,4.61-.96,6.31-2.87,2.55-4.69,2.55-8.34-.85-6.29-2.55-8.2-3.8-2.87-6.31-2.87-4.61,.96-6.32,2.87-2.56,4.67-2.56,8.27Z"/><path d="M242.17,130.23h10.22l8.68,25.77,8.48-25.77h9.95l-12.82,34.93-2.29,6.32c-.84,2.12-1.65,3.74-2.41,4.85-.76,1.12-1.64,2.02-2.63,2.72-.99,.69-2.21,1.24-3.66,1.62-1.45,.39-3.08,.58-4.91,.58s-3.66-.19-5.43-.58l-.86-7.52c1.5,.3,2.86,.44,4.07,.44,2.23,0,3.88-.66,4.96-1.97,1.07-1.31,1.89-2.98,2.46-5.01l-13.81-36.4Z"/><path d="M283.42,147.86c0-3.19,.79-6.28,2.36-9.26,1.57-2.98,3.8-5.26,6.68-6.84,2.88-1.57,6.1-2.36,9.66-2.36,5.49,0,9.99,1.78,13.5,5.35,3.51,3.57,5.26,8.07,5.26,13.52s-1.77,10.04-5.32,13.65c-3.54,3.61-8,5.42-13.38,5.42-3.33,0-6.5-.75-9.52-2.26-3.02-1.5-5.32-3.71-6.89-6.61s-2.36-6.44-2.36-10.61Zm9.84,.51c0,3.6,.85,6.36,2.56,8.27s3.82,2.87,6.32,2.87,4.61-.96,6.31-2.87c1.7-1.91,2.55-4.69,2.55-8.34s-.85-6.29-2.55-8.2c-1.7-1.91-3.8-2.87-6.31-2.87s-4.62,.96-6.32,2.87-2.56,4.67-2.56,8.27Z"/><path d="M352.29,166.53v-5.43c-1.32,1.94-3.06,3.46-5.21,4.58s-4.43,1.67-6.82,1.67-4.62-.54-6.56-1.61c-1.94-1.07-3.34-2.57-4.2-4.51-.87-1.94-1.3-4.61-1.3-8.03v-22.97h9.6v16.68c0,5.1,.18,8.23,.53,9.38,.35,1.15,1,2.06,1.93,2.73,.93,.67,2.12,1.01,3.55,1.01,1.64,0,3.11-.45,4.41-1.35,1.3-.9,2.19-2.02,2.67-3.35s.72-4.6,.72-9.79v-15.31h9.61v36.3h-8.92Z"/><path d="M397.38,166.53l-11.48-36.3h9.33l6.8,23.79,6.25-23.79h9.26l6.05,23.79,6.94-23.79h9.47l-11.65,36.3h-9.23l-6.26-23.34-6.15,23.34h-9.33Z"/><path d="M452.23,141.3l-8.71-1.57c.98-3.51,2.67-6.11,5.06-7.79,2.39-1.69,5.95-2.53,10.66-2.53,4.28,0,7.47,.51,9.57,1.52,2.1,1.01,3.57,2.3,4.43,3.86,.85,1.56,1.28,4.43,1.28,8.6l-.1,11.21c0,3.19,.15,5.54,.46,7.06,.31,1.52,.88,3.14,1.73,4.87h-9.5c-.25-.64-.56-1.58-.92-2.84-.16-.57-.27-.95-.34-1.13-1.64,1.6-3.39,2.79-5.26,3.59-1.87,.8-3.86,1.2-5.98,1.2-3.74,0-6.68-1.01-8.84-3.04-2.15-2.03-3.23-4.59-3.23-7.69,0-2.05,.49-3.88,1.47-5.49,.98-1.61,2.35-2.84,4.12-3.69,1.77-.85,4.31-1.6,7.64-2.24,4.49-.84,7.6-1.63,9.33-2.36v-.96c0-1.85-.46-3.16-1.37-3.95-.91-.79-2.63-1.18-5.16-1.18-1.71,0-3.04,.34-4,1.01-.96,.67-1.73,1.85-2.32,3.54Zm12.85,7.79c-1.23,.41-3.18,.9-5.84,1.47-2.67,.57-4.41,1.13-5.23,1.67-1.25,.89-1.88,2.02-1.88,3.38s.5,2.51,1.5,3.49c1,.98,2.28,1.47,3.83,1.47,1.73,0,3.38-.57,4.96-1.71,1.16-.87,1.93-1.93,2.29-3.18,.25-.82,.38-2.38,.38-4.68v-1.91Z"/><path d="M517.01,166.53h-9.61v-18.53c0-3.92-.21-6.45-.62-7.6-.41-1.15-1.08-2.04-2-2.68-.92-.64-2.03-.96-3.33-.96-1.66,0-3.16,.46-4.48,1.37-1.32,.91-2.23,2.12-2.72,3.62-.49,1.5-.74,4.28-.74,8.34v16.44h-9.6v-36.3h8.92v5.33c3.17-4.1,7.16-6.15,11.96-6.15,2.12,0,4.06,.38,5.81,1.15,1.75,.76,3.08,1.74,3.98,2.92,.9,1.19,1.53,2.53,1.88,4.03,.35,1.5,.53,3.66,.53,6.46v22.56Z"/><path d="M543.39,130.23v7.66h-6.56v14.63c0,2.96,.06,4.69,.19,5.18,.12,.49,.41,.89,.85,1.21,.44,.32,.99,.48,1.62,.48,.89,0,2.18-.31,3.86-.92l.82,7.45c-2.23,.96-4.76,1.44-7.59,1.44-1.73,0-3.29-.29-4.68-.87-1.39-.58-2.41-1.33-3.06-2.26s-1.1-2.17-1.35-3.74c-.21-1.12-.31-3.37-.31-6.77v-15.83h-4.41v-7.66h4.41v-7.21l9.64-5.61v12.82h6.56Z"/><path d="M586.15,130.23v7.66h-6.56v14.63c0,2.96,.06,4.69,.19,5.18,.12,.49,.41,.89,.85,1.21,.44,.32,.99,.48,1.62,.48,.89,0,2.18-.31,3.86-.92l.82,7.45c-2.23,.96-4.76,1.44-7.59,1.44-1.73,0-3.29-.29-4.68-.87-1.39-.58-2.41-1.33-3.06-2.26s-1.1-2.17-1.35-3.74c-.21-1.12-.31-3.37-.31-6.77v-15.83h-4.41v-7.66h4.41v-7.21l9.64-5.61v12.82h6.56Z"/><path d="M590.59,147.86c0-3.19,.79-6.28,2.36-9.26,1.57-2.98,3.8-5.26,6.68-6.84s6.1-2.36,9.66-2.36c5.49,0,9.99,1.78,13.5,5.35,3.51,3.57,5.26,8.07,5.26,13.52s-1.77,10.04-5.31,13.65c-3.54,3.61-8,5.42-13.38,5.42-3.33,0-6.5-.75-9.52-2.26s-5.31-3.71-6.89-6.61-2.36-6.44-2.36-10.61Zm9.84,.51c0,3.6,.86,6.36,2.56,8.27s3.82,2.87,6.32,2.87,4.61-.96,6.31-2.87,2.55-4.69,2.55-8.34-.85-6.29-2.55-8.2-3.8-2.87-6.31-2.87-4.61,.96-6.32,2.87-2.56,4.67-2.56,8.27Z"/><path d="M654.61,166.53v-50.11h9.6v18.05c2.96-3.37,6.47-5.06,10.53-5.06,4.42,0,8.08,1.6,10.97,4.8,2.89,3.2,4.34,7.8,4.34,13.79s-1.47,10.97-4.43,14.32-6.53,5.02-10.75,5.02c-2.07,0-4.12-.52-6.13-1.56s-3.75-2.57-5.21-4.6v5.33h-8.92Zm9.54-18.94c0,3.76,.59,6.54,1.78,8.34,1.66,2.55,3.87,3.83,6.63,3.83,2.12,0,3.93-.91,5.42-2.72s2.24-4.67,2.24-8.56c0-4.15-.75-7.14-2.26-8.97-1.5-1.83-3.43-2.75-5.78-2.75s-4.22,.89-5.74,2.68c-1.53,1.79-2.29,4.51-2.29,8.15Z"/><path d="M706.98,166.53h-9.61v-36.3h8.92v5.16c1.53-2.44,2.9-4.04,4.12-4.82,1.22-.77,2.6-1.16,4.15-1.16,2.19,0,4.29,.6,6.32,1.81l-2.97,8.37c-1.62-1.05-3.12-1.57-4.51-1.57s-2.48,.37-3.42,1.11c-.94,.74-1.67,2.08-2.21,4.02-.54,1.94-.8,5.99-.8,12.17v11.21Z"/><path d="M746.04,154.97l9.57,1.61c-1.23,3.51-3.17,6.18-5.83,8.02-2.66,1.83-5.98,2.75-9.96,2.75-6.31,0-10.98-2.06-14.01-6.19-2.39-3.3-3.59-7.47-3.59-12.51,0-6.02,1.57-10.73,4.72-14.13,3.14-3.41,7.12-5.11,11.93-5.11,5.4,0,9.66,1.78,12.78,5.35,3.12,3.57,4.62,9.03,4.48,16.39h-24.06c.07,2.85,.84,5.06,2.32,6.65,1.48,1.58,3.33,2.38,5.54,2.38,1.5,0,2.77-.41,3.79-1.23s1.8-2.14,2.32-3.96Zm.55-9.71c-.07-2.78-.79-4.89-2.15-6.34-1.37-1.45-3.03-2.17-4.99-2.17-2.1,0-3.83,.76-5.2,2.29-1.37,1.53-2.04,3.6-2.02,6.22h14.36Z"/><path d="M771.13,141.3l-8.71-1.57c.98-3.51,2.67-6.11,5.06-7.79,2.39-1.69,5.95-2.53,10.66-2.53,4.28,0,7.47,.51,9.57,1.52,2.1,1.01,3.57,2.3,4.43,3.86,.85,1.56,1.28,4.43,1.28,8.6l-.1,11.21c0,3.19,.15,5.54,.46,7.06,.31,1.52,.88,3.14,1.73,4.87h-9.5c-.25-.64-.56-1.58-.92-2.84-.16-.57-.27-.95-.34-1.13-1.64,1.6-3.39,2.79-5.26,3.59-1.87,.8-3.86,1.2-5.98,1.2-3.74,0-6.68-1.01-8.84-3.04-2.15-2.03-3.23-4.59-3.23-7.69,0-2.05,.49-3.88,1.47-5.49,.98-1.61,2.35-2.84,4.12-3.69,1.77-.85,4.31-1.6,7.64-2.24,4.49-.84,7.6-1.63,9.33-2.36v-.96c0-1.85-.46-3.16-1.37-3.95-.91-.79-2.63-1.18-5.16-1.18-1.71,0-3.04,.34-4,1.01-.96,.67-1.73,1.85-2.32,3.54Zm12.85,7.79c-1.23,.41-3.18,.9-5.84,1.47-2.67,.57-4.41,1.13-5.23,1.67-1.25,.89-1.88,2.02-1.88,3.38s.5,2.51,1.5,3.49c1,.98,2.28,1.47,3.83,1.47,1.73,0,3.38-.57,4.96-1.71,1.16-.87,1.93-1.93,2.29-3.18,.25-.82,.38-2.38,.38-4.68v-1.91Z"/><path d="M802.54,166.53v-50.11h9.6v26.59l11.25-12.78h11.83l-12.41,13.26,13.3,23.04h-10.36l-9.12-16.3-4.48,4.68v11.62h-9.6Z"/><path d="M877.91,130.23v7.66h-6.56v14.63c0,2.96,.06,4.69,.19,5.18,.12,.49,.41,.89,.85,1.21,.44,.32,.99,.48,1.62,.48,.89,0,2.18-.31,3.86-.92l.82,7.45c-2.23,.96-4.76,1.44-7.59,1.44-1.73,0-3.29-.29-4.68-.87-1.39-.58-2.41-1.33-3.06-2.26s-1.1-2.17-1.35-3.74c-.21-1.12-.31-3.37-.31-6.77v-15.83h-4.41v-7.66h4.41v-7.21l9.64-5.61v12.82h6.56Z"/><path d="M894.14,116.42v18.42c3.1-3.62,6.8-5.43,11.11-5.43,2.21,0,4.21,.41,5.98,1.23s3.12,1.87,4.02,3.14c.9,1.28,1.52,2.69,1.85,4.24,.33,1.55,.5,3.95,.5,7.21v21.29h-9.61v-19.17c0-3.81-.18-6.22-.55-7.25-.36-1.03-1.01-1.84-1.93-2.44-.92-.6-2.08-.91-3.47-.91-1.59,0-3.02,.39-4.27,1.16-1.25,.77-2.17,1.94-2.75,3.5-.58,1.56-.87,3.87-.87,6.92v18.18h-9.61v-50.11h9.61Z"/><path d="M948.35,154.97l9.57,1.61c-1.23,3.51-3.17,6.18-5.83,8.02-2.65,1.83-5.98,2.75-9.96,2.75-6.31,0-10.98-2.06-14.01-6.19-2.39-3.3-3.59-7.47-3.59-12.51,0-6.02,1.57-10.73,4.72-14.13,3.14-3.41,7.12-5.11,11.93-5.11,5.4,0,9.66,1.78,12.78,5.35,3.12,3.57,4.61,9.03,4.48,16.39h-24.06c.07,2.85,.84,5.06,2.32,6.65,1.48,1.58,3.33,2.38,5.54,2.38,1.5,0,2.77-.41,3.79-1.23s1.8-2.14,2.32-3.96Zm.55-9.71c-.07-2.78-.79-4.89-2.15-6.34-1.37-1.45-3.03-2.17-4.99-2.17-2.1,0-3.83,.76-5.2,2.29-1.37,1.53-2.04,3.6-2.02,6.22h14.36Z"/><path d="M1002.36,130.23v7.66h-6.56v14.63c0,2.96,.06,4.69,.19,5.18,.12,.49,.41,.89,.85,1.21,.44,.32,.99,.48,1.62,.48,.89,0,2.18-.31,3.86-.92l.82,7.45c-2.23,.96-4.76,1.44-7.59,1.44-1.73,0-3.29-.29-4.68-.87-1.39-.58-2.41-1.33-3.06-2.26s-1.1-2.17-1.35-3.74c-.21-1.12-.31-3.37-.31-6.77v-15.83h-4.41v-7.66h4.41v-7.21l9.64-5.61v12.82h6.56Z"/><path d="M1016.2,141.3l-8.71-1.57c.98-3.51,2.67-6.11,5.06-7.79,2.39-1.69,5.95-2.53,10.66-2.53,4.28,0,7.47,.51,9.57,1.52,2.1,1.01,3.57,2.3,4.43,3.86,.85,1.56,1.28,4.43,1.28,8.6l-.1,11.21c0,3.19,.15,5.54,.46,7.06,.31,1.52,.88,3.14,1.73,4.87h-9.5c-.25-.64-.56-1.58-.92-2.84-.16-.57-.27-.95-.34-1.13-1.64,1.6-3.39,2.79-5.26,3.59-1.87,.8-3.86,1.2-5.98,1.2-3.74,0-6.68-1.01-8.84-3.04-2.15-2.03-3.23-4.59-3.23-7.69,0-2.05,.49-3.88,1.47-5.49,.98-1.61,2.35-2.84,4.12-3.69,1.77-.85,4.31-1.6,7.64-2.24,4.49-.84,7.6-1.63,9.33-2.36v-.96c0-1.85-.46-3.16-1.37-3.95-.91-.79-2.63-1.18-5.16-1.18-1.71,0-3.04,.34-4,1.01-.96,.67-1.73,1.85-2.32,3.54Zm12.85,7.79c-1.23,.41-3.18,.9-5.84,1.47-2.67,.57-4.41,1.13-5.23,1.67-1.25,.89-1.88,2.02-1.88,3.38s.5,2.51,1.5,3.49c1,.98,2.28,1.47,3.83,1.47,1.73,0,3.38-.57,4.96-1.71,1.16-.87,1.93-1.93,2.29-3.18,.25-.82,.38-2.38,.38-4.68v-1.91Z"/><path d="M1044.57,156.17l9.64-1.47c.41,1.87,1.24,3.29,2.5,4.26,1.25,.97,3.01,1.45,5.26,1.45,2.48,0,4.35-.46,5.61-1.37,.84-.64,1.26-1.49,1.26-2.56,0-.73-.23-1.33-.68-1.81-.48-.46-1.55-.88-3.21-1.26-7.75-1.71-12.66-3.27-14.73-4.68-2.87-1.96-4.31-4.68-4.31-8.17,0-3.14,1.24-5.79,3.72-7.93,2.48-2.14,6.33-3.21,11.55-3.21s8.66,.81,11.07,2.43c2.42,1.62,4.08,4.01,4.99,7.18l-9.06,1.67c-.39-1.41-1.12-2.5-2.21-3.25s-2.63-1.13-4.63-1.13c-2.53,0-4.34,.35-5.44,1.06-.73,.5-1.09,1.15-1.09,1.95,0,.68,.32,1.26,.96,1.74,.87,.64,3.86,1.54,8.97,2.7s8.69,2.59,10.71,4.27c2.01,1.71,3.01,4.09,3.01,7.14,0,3.33-1.39,6.19-4.17,8.58-2.78,2.39-6.89,3.59-12.34,3.59-4.95,0-8.86-1-11.74-3.01-2.88-2-4.77-4.73-5.66-8.17Z"/><path d="M1086.54,166.53v-50.11h9.61v26.59l11.24-12.78h11.83l-12.41,13.26,13.29,23.04h-10.36l-9.13-16.3-4.48,4.68v11.62h-9.61Z"/><path d="M1146.46,153.61h-8.72c-.02-1.25-.03-2.02-.03-2.29,0-2.83,.47-5.15,1.4-6.97,.93-1.82,2.8-3.87,5.61-6.15,2.8-2.28,4.48-3.77,5.03-4.48,.84-1.12,1.26-2.35,1.26-3.69,0-1.87-.75-3.47-2.24-4.8s-3.5-2-6.03-2-4.48,.7-6.12,2.08c-1.64,1.39-2.77,3.51-3.38,6.36l-8.82-1.09c.25-4.08,1.99-7.54,5.21-10.39,3.22-2.85,7.46-4.27,12.7-4.27,5.51,0,9.9,1.44,13.16,4.32,3.26,2.88,4.89,6.24,4.89,10.07,0,2.12-.6,4.12-1.79,6.02-1.2,1.89-3.75,4.47-7.67,7.72-2.03,1.69-3.29,3.04-3.78,4.07s-.71,2.86-.67,5.5Zm-8.72,12.92v-9.6h9.61v9.6h-9.61Z"/></g></svg>