<?xml version="1.0" encoding="UTF-8"?><svg id="Layer_1" xmlns="http://www.w3.org/2000/svg" viewBox="0 0 100 100"><defs><style>.cls-1{fill:#fff;}</style></defs><path class="cls-1" d="M64.14,50L97.07,17.07c3.91-3.91,3.91-10.24,0-14.14-3.91-3.91-10.24-3.91-14.14,0L50,35.86,17.07,2.93C13.17-.98,6.84-.98,2.93,2.93-.98,6.83-.98,13.17,2.93,17.07L35.86,50,2.93,82.93c-3.91,3.91-3.91,10.24,0,14.14,1.95,1.95,4.51,2.93,7.07,2.93s5.12-.98,7.07-2.93l32.93-32.93,32.93,32.93c1.95,1.95,4.51,2.93,7.07,2.93s5.12-.98,7.07-2.93c3.91-3.91,3.91-10.24,0-14.14l-32.93-32.93Z"/></svg>