<?xml version="1.0" encoding="UTF-8" standalone="no"?><!DOCTYPE svg PUBLIC "-//W3C//DTD SVG 1.1//EN" "http://www.w3.org/Graphics/SVG/1.1/DTD/svg11.dtd"><svg width="100%" height="100%" viewBox="0 0 100 100" version="1.1" xmlns="http://www.w3.org/2000/svg" xmlns:xlink="http://www.w3.org/1999/xlink" xml:space="preserve" xmlns:serif="http://www.serif.com/" style="fill-rule:evenodd;clip-rule:evenodd;stroke-linecap:round;stroke-linejoin:round;stroke-miterlimit:1.5;"><path d="M74.534,32.951l-48.535,-0l4,52.242l40.535,0l4,-52.242Zm-27.268,9.51l0,35.596c0,1.656 1.345,3 3,3c1.656,0 3,-1.344 3,-3l0,-35.596c0,-1.655 -1.344,-3 -3,-3c-1.655,0 -3,1.345 -3,3Zm15.487,0.37l-2,35.056c-0.095,1.653 1.171,3.071 2.824,3.166c1.653,0.094 3.072,-1.172 3.166,-2.825l2,-35.055c0.094,-1.653 -1.171,-3.072 -2.824,-3.166c-1.653,-0.095 -3.072,1.171 -3.166,2.824Zm-31.029,0.342l2,35.055c0.095,1.653 1.513,2.919 3.166,2.825c1.654,-0.095 2.919,-1.513 2.825,-3.166l-2,-35.056c-0.095,-1.653 -1.513,-2.919 -3.166,-2.824c-1.653,0.094 -2.919,1.513 -2.825,3.166Z" style="fill:#ff4628;"/><path d="M79.021,33.294c0.096,-1.249 -0.334,-2.482 -1.186,-3.402c-0.851,-0.919 -2.048,-1.441 -3.301,-1.441l-48.535,-0c-1.253,-0 -2.45,0.522 -3.301,1.441c-0.852,0.92 -1.282,2.153 -1.186,3.402l4,52.243c0.179,2.345 2.135,4.156 4.487,4.156l40.535,0c2.352,0 4.307,-1.811 4.487,-4.156l4,-52.243Zm-9.345,4.157l-0.928,45.135c-0,0 -37.029,0.348 -37.029,0.348c0.001,-0 -0.863,-45.483 -0.863,-45.483l38.82,-0Z" style="fill:#ff4628;"/><path d="M18.149,18.996l67.048,8.894" style="fill:none;stroke:#ff4628;stroke-width:7px;"/><clipPath id="_clip1"><path d="M70.447,9.191l-33.034,-4.382l-2.398,18.075l33.034,4.382l2.398,-18.075Z"/></clipPath><g clip-path="url(#_clip1)"><path d="M65.041,20.669c0.495,-3.734 -2.13,-7.162 -5.864,-7.657c-3.715,-0.493 -8.309,-1.102 -12.024,-1.595c-3.737,-0.496 -7.167,2.131 -7.663,5.867c-0.655,4.936 -1.428,10.764 -1.428,10.764l25.55,3.39c0,-0 0.774,-5.833 1.429,-10.769Z" style="fill:none;stroke:#ff4628;stroke-width:6px;"/></g></svg>