<?xml version="1.0" encoding="UTF-8" standalone="no"?><!DOCTYPE svg PUBLIC "-//W3C//DTD SVG 1.1//EN" "http://www.w3.org/Graphics/SVG/1.1/DTD/svg11.dtd"><svg width="100%" height="100%" viewBox="0 0 200 200" version="1.1" xmlns="http://www.w3.org/2000/svg" xmlns:xlink="http://www.w3.org/1999/xlink" xml:space="preserve" xmlns:serif="http://www.serif.com/" style="fill-rule:evenodd;clip-rule:evenodd;stroke-linejoin:round;stroke-miterlimit:2;"><g><path d="M100,194.803c-20.176,0 -36.595,-16.543 -36.595,-36.877c0,-6.384 1.658,-12.68 4.779,-18.218l0.618,-1.085l-0.618,-1.084c-3.13,-5.538 -4.779,-11.834 -4.779,-18.219c0,-6.384 1.658,-12.68 4.779,-18.218l0.618,-1.084l-0.618,-1.085c-3.13,-5.538 -4.779,-11.834 -4.779,-18.218c0,-6.384 1.658,-12.681 4.779,-18.218l0.618,-1.085l-0.618,-1.084c-3.13,-5.538 -4.779,-11.834 -4.779,-18.219c0,-20.352 16.419,-36.894 36.595,-36.894c20.176,-0 36.595,16.542 36.595,36.877c-0,6.384 -1.658,12.68 -4.779,18.218l-0.618,1.084l0.618,1.085c3.13,5.538 4.779,11.834 4.779,18.218c-0,6.385 -1.658,12.681 -4.779,18.218l-0.618,1.085l0.618,1.085c3.13,5.537 4.779,11.833 4.779,18.218c-0,6.384 -1.658,12.68 -4.779,18.218l-0.618,1.085l0.618,1.084c3.13,5.538 4.779,11.834 4.779,18.218c-0,20.335 -16.419,36.877 -36.595,36.877l0,0.018Z" style="fill:#bfef88;fill-rule:nonzero;"/><path d="M100,7.419c18.959,0 34.39,15.555 34.39,34.673c0,6.005 -1.552,11.931 -4.497,17.133l-1.225,2.169l1.225,2.17c2.945,5.202 4.497,11.128 4.497,17.133c0,6.005 -1.552,11.931 -4.497,17.134l-1.225,2.169l1.225,2.169c2.945,5.203 4.497,11.129 4.497,17.134c0,6.005 -1.552,11.931 -4.497,17.133l-1.225,2.17l1.225,2.169c2.945,5.202 4.497,11.128 4.497,17.133c0,19.118 -15.431,34.673 -34.39,34.673c-18.959,-0 -34.39,-15.538 -34.39,-34.655c-0,-6.005 1.552,-11.931 4.497,-17.134l1.225,-2.169l-1.225,-2.169c-2.945,-5.203 -4.497,-11.129 -4.497,-17.134c-0,-6.005 1.552,-11.93 4.497,-17.133l1.225,-2.169l-1.225,-2.17c-2.945,-5.202 -4.497,-11.128 -4.497,-17.133c-0,-6.005 1.552,-11.931 4.497,-17.134l1.225,-2.169l-1.225,-2.169c-2.945,-5.203 -4.497,-11.129 -4.497,-17.134c-0,-19.135 15.431,-34.69 34.39,-34.69m0,-4.409c-21.428,0 -38.8,17.495 -38.8,39.082c0,7.019 1.852,13.606 5.071,19.302c-3.219,5.697 -5.071,12.284 -5.071,19.303c0,7.019 1.852,13.607 5.071,19.303c-3.219,5.696 -5.071,12.284 -5.071,19.303c0,7.019 1.852,13.606 5.071,19.303c-3.219,5.696 -5.071,12.283 -5.071,19.302c0,21.587 17.372,39.082 38.8,39.082c21.428,-0 38.8,-17.495 38.8,-39.082c-0,-7.019 -1.852,-13.606 -5.071,-19.302c3.219,-5.697 5.071,-12.284 5.071,-19.303c-0,-7.019 -1.852,-13.607 -5.071,-19.303c3.219,-5.696 5.071,-12.284 5.071,-19.303c-0,-7.019 -1.852,-13.606 -5.071,-19.303c3.219,-5.696 5.071,-12.283 5.071,-19.302c-0,-21.587 -17.372,-39.082 -38.8,-39.082Z" style="fill:#79d060;fill-rule:nonzero;stroke:#79d060;stroke-width:5px;"/></g></svg>