<?xml version="1.0" encoding="UTF-8"?><svg id="Layer_1" xmlns="http://www.w3.org/2000/svg" viewBox="0 0 100 100"><defs><style>.cls-1{fill:#97e47e;}</style></defs><path class="cls-1" d="M96.35,22.26c-3.51-2.26-8.02-.96-10.07,2.93l-.89,1.69c-2.1-4.47-4.81-8.6-8.11-12.25C59.63-4.88,30.9-4.87,13.24,14.63c-17.66,19.51-17.66,51.24,0,70.75,8.83,9.75,20.42,14.63,32.02,14.63s23.19-4.88,32.02-14.63c2.12-2.34,4.03-4.93,5.7-7.69,2.25-3.74,1.33-8.79-2.05-11.28-3.39-2.48-7.96-1.47-10.21,2.27-1.13,1.87-2.42,3.62-3.85,5.2-11.92,13.16-31.3,13.16-43.21,0-11.91-13.16-11.91-34.58,0-47.74,11.91-13.16,31.3-13.16,43.21,0,.71,.79,1.38,1.62,2.01,2.47-2.97-.6-6.08,.83-7.69,3.87-2.05,3.88-.86,8.86,2.65,11.12l22.2,14.31,12.96-24.52c2.05-3.88,.86-8.86-2.65-11.12Z"/></svg>