<?xml version="1.0" encoding="UTF-8" standalone="no"?>
<!DOCTYPE svg PUBLIC "-//W3C//DTD SVG 1.1//EN" "http://www.w3.org/Graphics/SVG/1.1/DTD/svg11.dtd">
<svg width="100%" height="100%" viewBox="0 0 88 220" version="1.1" xmlns="http://www.w3.org/2000/svg" xmlns:xlink="http://www.w3.org/1999/xlink" xml:space="preserve" xmlns:serif="http://www.serif.com/" style="fill-rule:evenodd;clip-rule:evenodd;stroke-linejoin:round;stroke-miterlimit:2;">
    <g transform="matrix(0.881807,0,0,0.881807,5,11)">
        <path d="M44,217.5C21.12,217.5 2.5,198.74 2.5,175.68C2.5,168.44 4.38,161.3 7.92,155.02L8.62,153.79L7.92,152.56C4.37,146.28 2.5,139.14 2.5,131.9C2.5,124.66 4.38,117.52 7.92,111.24L8.62,110.01L7.92,108.78C4.37,102.5 2.5,95.36 2.5,88.12C2.5,80.88 4.38,73.74 7.92,67.46L8.62,66.23L7.92,65C4.37,58.72 2.5,51.58 2.5,44.34C2.5,21.26 21.12,2.5 44,2.5C66.88,2.5 85.5,21.26 85.5,44.32C85.5,51.56 83.62,58.7 80.08,64.98L79.38,66.21L80.08,67.44C83.63,73.72 85.5,80.86 85.5,88.1C85.5,95.34 83.62,102.48 80.08,108.76L79.38,109.99L80.08,111.22C83.63,117.5 85.5,124.64 85.5,131.88C85.5,139.12 83.62,146.26 80.08,152.54L79.38,153.77L80.08,155C83.63,161.28 85.5,168.42 85.5,175.66C85.5,198.72 66.88,217.48 44,217.48L44,217.5Z" style="fill:rgb(191,239,136);fill-rule:nonzero;"/>
        <path d="M44,5C65.5,5 83,22.64 83,44.32C83,51.13 81.24,57.85 77.9,63.75L76.51,66.21L77.9,68.67C81.24,74.57 83,81.29 83,88.1C83,94.91 81.24,101.63 77.9,107.53L76.51,109.99L77.9,112.45C81.24,118.35 83,125.07 83,131.88C83,138.69 81.24,145.41 77.9,151.31L76.51,153.77L77.9,156.23C81.24,162.13 83,168.85 83,175.66C83,197.34 65.5,214.98 44,214.98C22.5,214.98 5,197.36 5,175.68C5,168.87 6.76,162.15 10.1,156.25L11.49,153.79L10.1,151.33C6.76,145.43 5,138.71 5,131.9C5,125.09 6.76,118.37 10.1,112.47L11.49,110.01L10.1,107.55C6.76,101.65 5,94.93 5,88.12C5,81.31 6.76,74.59 10.1,68.69L11.49,66.23L10.1,63.77C6.76,57.87 5,51.15 5,44.34C5,22.64 22.5,5 44,5M44,0C19.7,0 0,19.84 0,44.32C0,52.28 2.1,59.75 5.75,66.21C2.1,72.67 0,80.14 0,88.1C0,96.06 2.1,103.53 5.75,109.99C2.1,116.45 0,123.92 0,131.88C0,139.84 2.1,147.31 5.75,153.77C2.1,160.23 0,167.7 0,175.66C0,200.14 19.7,219.98 44,219.98C68.3,219.98 88,200.14 88,175.66C88,167.7 85.9,160.23 82.25,153.77C85.9,147.31 88,139.84 88,131.88C88,123.92 85.9,116.45 82.25,109.99C85.9,103.53 88,96.06 88,88.1C88,80.14 85.9,72.67 82.25,66.21C85.9,59.75 88,52.28 88,44.32C88,19.84 68.3,0 44,0Z" style="fill:rgb(121,208,96);fill-rule:nonzero;stroke:rgb(121,208,96);stroke-width:5.67px;"/>
    </g>
</svg>
