<?xml version="1.0" encoding="UTF-8" standalone="no"?><!DOCTYPE svg PUBLIC "-//W3C//DTD SVG 1.1//EN" "http://www.w3.org/Graphics/SVG/1.1/DTD/svg11.dtd"><svg width="100%" height="100%" viewBox="0 0 100 100" version="1.1" xmlns="http://www.w3.org/2000/svg" xmlns:xlink="http://www.w3.org/1999/xlink" xml:space="preserve" xmlns:serif="http://www.serif.com/" style="fill-rule:evenodd;clip-rule:evenodd;stroke-linecap:round;stroke-linejoin:round;stroke-miterlimit:1.5;"><g><clipPath id="_clip1"><path d="M77.28,-2.036l-43.067,-6.91l-3.127,28.503l43.068,6.91l3.126,-28.503Z"/></clipPath><g clip-path="url(#_clip1)"><clipPath id="_clip2"><rect x="25.281" y="-9.896" width="49.483" height="28.724"/></clipPath><g clip-path="url(#_clip2)"><path d="M66.379,15.428c0.607,-4.575 -2.61,-8.775 -7.185,-9.381c-4.552,-0.604 -10.18,-1.351 -14.732,-1.955c-4.579,-0.607 -8.781,2.611 -9.389,7.189c-0.803,6.048 -1.75,13.189 -1.75,13.189l31.305,4.153c0,0 0.949,-7.147 1.751,-13.195Z" style="fill:none;stroke:#ff4628;stroke-width:7.35px;"/></g></g></g><path d="M78.01,30.477l-59.467,-0l4.901,64.009l49.665,0l4.901,-64.009Zm-33.41,11.652l0,43.614c0,2.029 1.648,3.676 3.676,3.676c2.029,-0 3.676,-1.647 3.676,-3.676l-0,-43.614c-0,-2.028 -1.647,-3.676 -3.676,-3.676c-2.028,0 -3.676,1.648 -3.676,3.676Zm18.976,0.453l-2.451,42.953c-0.116,2.025 1.435,3.762 3.46,3.879c2.026,0.115 3.764,-1.436 3.88,-3.461l2.45,-42.952c0.115,-2.025 -1.435,-3.764 -3.46,-3.879c-2.025,-0.116 -3.764,1.435 -3.879,3.46Zm-38.018,0.419l2.45,42.952c0.116,2.025 1.854,3.576 3.879,3.461c2.027,-0.117 3.577,-1.854 3.461,-3.879l-2.45,-42.953c-0.116,-2.025 -1.854,-3.576 -3.879,-3.46c-2.026,0.115 -3.577,1.854 -3.461,3.879Z" style="fill:#ff4628;"/><path d="M83.508,30.897c0.118,-1.53 -0.409,-3.041 -1.453,-4.168c-1.043,-1.126 -2.509,-1.766 -4.045,-1.766l-59.467,0c-1.535,0 -3.002,0.64 -4.045,1.766c-1.044,1.127 -1.57,2.638 -1.453,4.168l4.901,64.011c0.22,2.873 2.616,5.092 5.498,5.092l49.665,0c2.882,0 5.278,-2.219 5.498,-5.092l4.901,-64.011Zm-11.45,5.094l-1.137,55.301l-45.37,0.427c0.002,-0 -1.057,-55.728 -1.057,-55.728l47.564,-0Z" style="fill:#ff4628;"/><path d="M8.925,13.379l82.15,10.897" style="fill:none;stroke:#ff4628;stroke-width:8.58px;"/></svg>