<?xml version="1.0" encoding="UTF-8" standalone="no"?><!DOCTYPE svg PUBLIC "-//W3C//DTD SVG 1.1//EN" "http://www.w3.org/Graphics/SVG/1.1/DTD/svg11.dtd"><svg width="100%" height="100%" viewBox="0 0 186 1656" version="1.1" xmlns="http://www.w3.org/2000/svg" xmlns:xlink="http://www.w3.org/1999/xlink" xml:space="preserve" xmlns:serif="http://www.serif.com/" style="fill-rule:evenodd;clip-rule:evenodd;stroke-linejoin:round;stroke-miterlimit:2;"><path d="M0.967,470.255l183.253,0c-0,0 -2.177,855.441 -0,1052.38c0.565,51.177 10.044,133.366 -48.114,133.366l-77.545,0c-57.028,0 -57.028,-82.189 -57.594,-133.366c-2.176,-196.938 0,-1052.38 0,-1052.38Z" style="fill:#fde575;fill-rule:nonzero;"/><path d="M1.533,0.012l183.252,-0l-0,1052.38c-0,70.597 -25.807,127.914 -57.594,127.914l-68.065,-0c-31.786,-0 -57.593,-57.317 -57.593,-127.914l-0,-1052.38Z" style="fill:#fde575;fill-rule:nonzero;"/><g><path d="M81.015,0.012l-7.617,-0c0.605,8.919 2.791,16.989 6.186,21.222l50.549,62.956l2.186,-11.779l-45.758,-56.98c-2.628,-3.279 -4.535,-8.884 -5.546,-15.408l-0,-0.011Z" style="fill:#ccc;fill-rule:nonzero;"/><path d="M86.561,15.408l45.758,56.979l2.675,-14.419c2.686,-14.466 0.337,-31.839 -5.256,-38.793l-15.396,-19.175l-33.327,-0c1.011,6.512 2.907,12.129 5.546,15.408Z" style="fill:#fff;fill-rule:nonzero;"/></g><path d="M81.305,53.363l2.675,-14.419l-4.791,-5.966l-4.861,26.199c-2.686,14.466 -0.337,31.839 5.256,38.793l50.549,62.957l2.186,-11.78l-45.758,-56.98c-5.581,-6.953 -7.93,-24.326 -5.256,-38.792l0,-0.012Z" style="fill:#ccc;fill-rule:nonzero;"/><path d="M129.738,95.935l-45.758,-56.98l-2.675,14.42c-2.686,14.466 -0.337,31.839 5.256,38.792l45.758,56.98l2.675,-14.419c2.686,-14.466 0.337,-31.839 -5.256,-38.793Z" style="fill:#fff;fill-rule:nonzero;"/><path d="M81.305,130.111l2.675,-14.419l-4.791,-5.966l-4.861,26.199c-2.686,14.466 -0.337,31.839 5.256,38.793l50.549,62.957l2.186,-11.78l-45.758,-56.979c-5.581,-6.954 -7.93,-24.327 -5.256,-38.793l0,-0.012Z" style="fill:#ccc;fill-rule:nonzero;"/><path d="M129.738,172.683l-45.758,-56.979l-2.675,14.419c-2.686,14.466 -0.337,31.839 5.256,38.793l45.758,56.979l2.675,-14.419c2.686,-14.466 0.337,-31.839 -5.256,-38.793Z" style="fill:#fff;fill-rule:nonzero;"/><path d="M81.305,206.859l2.675,-14.419l-4.791,-5.965l-4.861,26.199c-2.686,14.465 -0.337,31.838 5.256,38.792l50.549,62.957l2.186,-11.78l-45.758,-56.979c-5.581,-6.954 -7.93,-24.327 -5.256,-38.793l0,-0.012Z" style="fill:#ccc;fill-rule:nonzero;"/><path d="M129.738,249.431l-45.758,-56.979l-2.675,14.419c-2.686,14.466 -0.337,31.839 5.256,38.793l45.758,56.979l2.675,-14.419c2.686,-14.466 0.337,-31.839 -5.256,-38.793Z" style="fill:#fff;fill-rule:nonzero;"/><path d="M81.305,283.607l2.675,-14.419l-4.791,-5.965l-4.861,26.199c-2.686,14.465 -0.337,31.838 5.256,38.792l50.549,62.957l2.186,-11.78l-45.758,-56.979c-5.581,-6.954 -7.93,-24.327 -5.256,-38.793l0,-0.012Z" style="fill:#ccc;fill-rule:nonzero;"/><path d="M129.738,326.179l-45.758,-56.979l-2.675,14.419c-2.686,14.466 -0.337,31.839 5.256,38.793l45.758,56.979l2.675,-14.419c2.686,-14.466 0.337,-31.839 -5.256,-38.793Z" style="fill:#fff;fill-rule:nonzero;"/><path d="M81.305,360.355l2.675,-14.419l-4.791,-5.965l-4.861,26.199c-2.686,14.466 -0.337,31.838 5.256,38.792l50.549,62.957l2.186,-11.78l-45.758,-56.979c-5.581,-6.954 -7.93,-24.327 -5.256,-38.793l0,-0.012Z" style="fill:#ccc;fill-rule:nonzero;"/><path d="M129.738,402.927l-45.758,-56.979l-2.675,14.419c-2.686,14.466 -0.337,31.839 5.256,38.793l45.758,56.979l2.675,-14.419c2.686,-14.466 0.337,-31.839 -5.256,-38.793Z" style="fill:#fff;fill-rule:nonzero;"/><path d="M81.305,437.103l2.675,-14.419l-4.791,-5.965l-4.861,26.199c-2.686,14.466 -0.337,31.839 5.256,38.792l50.549,62.957l2.186,-11.78l-45.758,-56.979c-5.581,-6.954 -7.93,-24.327 -5.256,-38.793l0,-0.012Z" style="fill:#ccc;fill-rule:nonzero;"/><path d="M129.738,479.675l-45.758,-56.979l-2.675,14.419c-2.686,14.466 -0.337,31.839 5.256,38.793l45.758,56.979l2.675,-14.419c2.686,-14.466 0.337,-31.839 -5.256,-38.793Z" style="fill:#fff;fill-rule:nonzero;"/><path d="M81.305,513.852l2.675,-14.42l-4.791,-5.965l-4.861,26.199c-2.686,14.466 -0.337,31.839 5.256,38.792l50.549,62.957l2.186,-11.78l-45.758,-56.979c-5.581,-6.954 -7.93,-24.327 -5.256,-38.793l0,-0.011Z" style="fill:#ccc;fill-rule:nonzero;"/><path d="M129.738,556.423l-45.758,-56.979l-2.675,14.419c-2.686,14.466 -0.337,31.839 5.256,38.793l45.758,56.979l2.675,-14.419c2.686,-14.466 0.337,-31.839 -5.256,-38.793Z" style="fill:#fff;fill-rule:nonzero;"/><path d="M81.305,590.6l2.675,-14.42l-4.791,-5.965l-4.861,26.199c-2.686,14.466 -0.337,31.839 5.256,38.793l50.549,62.956l2.186,-11.779l-45.758,-56.98c-5.581,-6.954 -7.93,-24.327 -5.256,-38.793l0,-0.011Z" style="fill:#ccc;fill-rule:nonzero;"/><path d="M129.738,633.172l-45.758,-56.98l-2.675,14.419c-2.686,14.466 -0.337,31.839 5.256,38.793l45.758,56.98l2.675,-14.42c2.686,-14.466 0.337,-31.839 -5.256,-38.792Z" style="fill:#fff;fill-rule:nonzero;"/><path d="M81.305,667.348l2.675,-14.42l-4.791,-5.965l-4.861,26.199c-2.686,14.466 -0.337,31.839 5.256,38.793l50.549,62.956l2.186,-11.779l-45.758,-56.98c-5.581,-6.954 -7.93,-24.327 -5.256,-38.793l0,-0.011Z" style="fill:#ccc;fill-rule:nonzero;"/><path d="M129.738,709.92l-45.758,-56.98l-2.675,14.419c-2.686,14.466 -0.337,31.839 5.256,38.793l45.758,56.98l2.675,-14.42c2.686,-14.466 0.337,-31.839 -5.256,-38.792Z" style="fill:#fff;fill-rule:nonzero;"/><path d="M81.305,744.096l2.675,-14.42l-4.791,-5.965l-4.861,26.199c-2.686,14.466 -0.337,31.839 5.256,38.793l50.549,62.956l2.186,-11.779l-45.758,-56.98c-5.581,-6.954 -7.93,-24.327 -5.256,-38.793l0,-0.011Z" style="fill:#ccc;fill-rule:nonzero;"/><path d="M129.738,786.668l-45.758,-56.98l-2.675,14.419c-2.686,14.466 -0.337,31.839 5.256,38.793l45.758,56.98l2.675,-14.42c2.686,-14.466 0.337,-31.838 -5.256,-38.792Z" style="fill:#fff;fill-rule:nonzero;"/><path d="M81.305,820.844l2.675,-14.42l-4.791,-5.965l-4.861,26.199c-2.686,14.466 -0.337,31.839 5.256,38.793l50.549,62.956l2.186,-11.779l-45.758,-56.98c-5.581,-6.954 -7.93,-24.327 -5.256,-38.793l0,-0.011Z" style="fill:#ccc;fill-rule:nonzero;"/><path d="M129.738,863.416l-45.758,-56.98l-2.675,14.419c-2.686,14.466 -0.337,31.839 5.256,38.793l45.758,56.98l2.675,-14.42c2.686,-14.465 0.337,-31.838 -5.256,-38.792Z" style="fill:#fff;fill-rule:nonzero;"/><path d="M81.305,897.59l2.675,-14.42l-4.791,-5.965l-4.861,26.199c-2.686,14.466 -0.337,31.839 5.256,38.792l50.549,62.957l2.186,-11.78l-45.758,-56.979c-5.581,-6.954 -7.93,-24.327 -5.256,-38.793l0,-0.011Z" style="fill:#ccc;fill-rule:nonzero;"/><path d="M129.738,940.161l-45.758,-56.979l-2.675,14.419c-2.686,14.466 -0.337,31.839 5.256,38.793l45.758,56.979l2.675,-14.419c2.686,-14.466 0.337,-31.839 -5.256,-38.793Z" style="fill:#fff;fill-rule:nonzero;"/><path d="M81.305,974.338l2.675,-14.42l-4.791,-5.965l-4.861,26.199c-2.686,14.466 -0.337,31.839 5.256,38.793l50.549,62.956l2.186,-11.779l-45.758,-56.98c-5.581,-6.954 -7.93,-24.327 -5.256,-38.793l0,-0.011Z" style="fill:#ccc;fill-rule:nonzero;"/><path d="M129.738,1016.91l-45.758,-56.98l-2.675,14.419c-2.686,14.466 -0.337,31.839 5.256,38.793l45.758,56.98l2.675,-14.42c2.686,-14.466 0.337,-31.839 -5.256,-38.792Z" style="fill:#fff;fill-rule:nonzero;"/><path d="M81.305,1051.09l2.675,-14.42l-4.791,-5.965l-4.861,26.199c-2.686,14.466 -0.337,31.839 5.256,38.793l50.549,62.956l2.186,-11.779l-45.758,-56.98c-5.581,-6.954 -7.93,-24.327 -5.256,-38.793l0,-0.011Z" style="fill:#ccc;fill-rule:nonzero;"/><path d="M129.738,1093.66l-45.758,-56.98l-2.675,14.419c-2.686,14.466 -0.337,31.839 5.256,38.793l45.758,56.98l2.675,-14.42c2.686,-14.466 0.337,-31.839 -5.256,-38.792Z" style="fill:#fff;fill-rule:nonzero;"/><g><path d="M86.561,1166.63c-5.581,-6.953 -7.93,-24.326 -5.256,-38.792l2.675,-14.42l-4.791,-5.965l-4.861,26.199c-2.686,14.477 -0.337,31.839 5.256,38.793l6.303,7.849l11.64,-0l-10.977,-13.664l0.011,0Z" style="fill:#ccc;fill-rule:nonzero;"/><path d="M86.561,1166.63l10.978,13.664l36.618,-0c-1.07,-4.117 -2.558,-7.594 -4.419,-9.896l-45.758,-56.98l-2.675,14.42c-2.686,14.477 -0.337,31.839 5.256,38.792Z" style="fill:#fff;fill-rule:nonzero;"/></g><g><path d="M81.015,690.64l-7.617,-0c0.605,8.919 2.791,16.989 6.186,21.222l50.549,62.956l2.186,-11.779l-45.758,-56.98c-2.628,-3.279 -4.535,-8.884 -5.546,-15.408l-0,-0.011Z" style="fill:#ccc;fill-rule:nonzero;"/><path d="M86.561,706.036l45.758,56.979l2.675,-14.419c2.686,-14.466 0.337,-31.839 -5.256,-38.793l-15.396,-19.175l-33.327,-0c1.011,6.512 2.907,12.128 5.546,15.408Z" style="fill:#fff;fill-rule:nonzero;"/></g><path d="M81.305,743.991l2.675,-14.419l-4.791,-5.966l-4.861,26.199c-2.686,14.466 -0.337,31.839 5.256,38.793l50.549,62.957l2.186,-11.78l-45.758,-56.98c-5.581,-6.953 -7.93,-24.326 -5.256,-38.792l0,-0.012Z" style="fill:#ccc;fill-rule:nonzero;"/><path d="M129.738,786.563l-45.758,-56.98l-2.675,14.42c-2.686,14.466 -0.337,31.839 5.256,38.792l45.758,56.98l2.675,-14.419c2.686,-14.466 0.337,-31.839 -5.256,-38.793Z" style="fill:#fff;fill-rule:nonzero;"/><path d="M81.305,820.739l2.675,-14.419l-4.791,-5.966l-4.861,26.199c-2.686,14.466 -0.337,31.839 5.256,38.793l50.549,62.957l2.186,-11.78l-45.758,-56.98c-5.581,-6.953 -7.93,-24.326 -5.256,-38.792l0,-0.012Z" style="fill:#ccc;fill-rule:nonzero;"/><path d="M129.738,863.311l-45.758,-56.98l-2.675,14.42c-2.686,14.466 -0.337,31.839 5.256,38.792l45.758,56.98l2.675,-14.419c2.686,-14.466 0.337,-31.839 -5.256,-38.793Z" style="fill:#fff;fill-rule:nonzero;"/><path d="M81.305,897.485l2.675,-14.419l-4.791,-5.966l-4.861,26.199c-2.686,14.466 -0.337,31.839 5.256,38.793l50.549,62.956l2.186,-11.779l-45.758,-56.98c-5.581,-6.954 -7.93,-24.327 -5.256,-38.792l0,-0.012Z" style="fill:#ccc;fill-rule:nonzero;"/><path d="M129.738,940.057l-45.758,-56.98l-2.675,14.42c-2.686,14.465 -0.337,31.838 5.256,38.792l45.758,56.98l2.675,-14.42c2.686,-14.465 0.337,-31.838 -5.256,-38.792Z" style="fill:#fff;fill-rule:nonzero;"/><path d="M81.305,974.233l2.675,-14.419l-4.791,-5.966l-4.861,26.199c-2.686,14.466 -0.337,31.839 5.256,38.793l50.549,62.957l2.186,-11.78l-45.758,-56.98c-5.581,-6.954 -7.93,-24.327 -5.256,-38.792l0,-0.012Z" style="fill:#ccc;fill-rule:nonzero;"/><path d="M129.738,1016.81l-45.758,-56.98l-2.675,14.42c-2.686,14.465 -0.337,31.838 5.256,38.792l45.758,56.98l2.675,-14.419c2.686,-14.466 0.337,-31.839 -5.256,-38.793Z" style="fill:#fff;fill-rule:nonzero;"/><path d="M81.305,1050.98l2.675,-14.419l-4.791,-5.966l-4.861,26.199c-2.686,14.466 -0.337,31.839 5.256,38.793l50.549,62.957l2.186,-11.78l-45.758,-56.98c-5.581,-6.954 -7.93,-24.326 -5.256,-38.792l0,-0.012Z" style="fill:#ccc;fill-rule:nonzero;"/><path d="M129.738,1093.55l-45.758,-56.98l-2.675,14.42c-2.686,14.466 -0.337,31.838 5.256,38.792l45.758,56.98l2.675,-14.419c2.686,-14.466 0.337,-31.839 -5.256,-38.793Z" style="fill:#fff;fill-rule:nonzero;"/><path d="M81.305,1127.73l2.675,-14.419l-4.791,-5.966l-4.861,26.199c-2.686,14.466 -0.337,31.839 5.256,38.793l50.549,62.957l2.186,-11.78l-45.758,-56.98c-5.581,-6.953 -7.93,-24.326 -5.256,-38.792l0,-0.012Z" style="fill:#ccc;fill-rule:nonzero;"/><path d="M129.738,1170.3l-45.758,-56.98l-2.675,14.42c-2.686,14.466 -0.337,31.839 5.256,38.792l45.758,56.98l2.675,-14.419c2.686,-14.466 0.337,-31.839 -5.256,-38.793Z" style="fill:#fff;fill-rule:nonzero;"/><path d="M81.305,1204.48l2.675,-14.419l-4.791,-5.966l-4.861,26.199c-2.686,14.466 -0.337,31.839 5.256,38.793l50.549,62.957l2.186,-11.78l-45.758,-56.98c-5.581,-6.953 -7.93,-24.326 -5.256,-38.792l0,-0.012Z" style="fill:#ccc;fill-rule:nonzero;"/><path d="M129.738,1247.05l-45.758,-56.98l-2.675,14.42c-2.686,14.466 -0.337,31.839 5.256,38.792l45.758,56.98l2.675,-14.419c2.686,-14.466 0.337,-31.839 -5.256,-38.793Z" style="fill:#fff;fill-rule:nonzero;"/><path d="M81.305,1281.23l2.675,-14.419l-4.791,-5.966l-4.861,26.199c-2.686,14.466 -0.337,31.839 5.256,38.793l50.549,62.957l2.186,-11.78l-45.758,-56.979c-5.581,-6.954 -7.93,-24.327 -5.256,-38.793l0,-0.012Z" style="fill:#ccc;fill-rule:nonzero;"/><path d="M129.738,1323.8l-45.758,-56.979l-2.675,14.419c-2.686,14.466 -0.337,31.839 5.256,38.793l45.758,56.979l2.675,-14.419c2.686,-14.466 0.337,-31.839 -5.256,-38.793Z" style="fill:#fff;fill-rule:nonzero;"/><path d="M81.305,1357.97l2.675,-14.419l-4.791,-5.965l-4.861,26.199c-2.686,14.465 -0.337,31.838 5.256,38.792l50.549,62.957l2.186,-11.78l-45.758,-56.979c-5.581,-6.954 -7.93,-24.327 -5.256,-38.793l0,-0.012Z" style="fill:#ccc;fill-rule:nonzero;"/><path d="M129.738,1400.55l-45.758,-56.979l-2.675,14.419c-2.686,14.466 -0.337,31.839 5.256,38.793l45.758,56.979l2.675,-14.419c2.686,-14.466 0.337,-31.839 -5.256,-38.793Z" style="fill:#fff;fill-rule:nonzero;"/><path d="M81.305,1434.72l2.675,-14.419l-4.791,-5.965l-4.861,26.199c-2.686,14.465 -0.337,31.838 5.256,38.792l50.549,62.957l2.186,-11.78l-45.758,-56.979c-5.581,-6.954 -7.93,-24.327 -5.256,-38.793l0,-0.012Z" style="fill:#ccc;fill-rule:nonzero;"/><path d="M129.738,1477.29l-45.758,-56.979l-2.675,14.419c-2.686,14.466 -0.337,31.839 5.256,38.793l45.758,56.979l2.675,-14.419c2.686,-14.466 0.337,-31.839 -5.256,-38.793Z" style="fill:#fff;fill-rule:nonzero;"/><path d="M81.305,1511.47l2.675,-14.419l-4.791,-5.965l-4.861,26.199c-2.686,14.466 -0.337,31.839 5.256,38.792l50.549,62.957l2.186,-11.78l-45.758,-56.979c-5.581,-6.954 -7.93,-24.327 -5.256,-38.793l0,-0.012Z" style="fill:#ccc;fill-rule:nonzero;"/><path d="M129.738,1554.04l-45.758,-56.979l-2.675,14.419c-2.686,14.466 -0.337,31.839 5.256,38.793l45.758,56.979l2.675,-14.419c2.686,-14.466 0.337,-31.839 -5.256,-38.793Z" style="fill:#fff;fill-rule:nonzero;"/><path d="M130.133,7.534l-6.049,-7.534l7.448,0l-1.399,7.534Z" style="fill:#ccc;fill-rule:nonzero;"/><path d="M80.981,0l-7.604,0c0.591,8.967 2.796,17.084 6.207,21.325l50.549,62.957l2.186,-11.78l-45.758,-56.979c-2.655,-3.301 -4.579,-8.95 -5.58,-15.523Z" style="fill:#ccc;fill-rule:nonzero;"/><path d="M88.014,1656l-4.966,0l0.932,-5.024l4.034,5.024Z" style="fill:#fff;"/><path d="M121.549,1656l-1.652,-2.058l2.034,-0l-0.382,2.058Zm-49.49,-109.234l5.509,0l0.872,-4.703l-4.475,-5.572l-1.906,10.275Z" style="fill:#ccc;fill-rule:nonzero;"/><path d="M109.496,1656l26.596,0c-0.196,-10.303 -2.508,-20.01 -6.354,-24.792l-45.758,-56.98l-2.675,14.42c-2.686,14.466 -0.337,31.839 5.256,38.792l22.935,28.56Z" style="fill:#fff;fill-rule:nonzero;"/><path d="M97.856,1656l11.64,0l-22.935,-28.56c-5.581,-6.953 -7.93,-24.326 -5.256,-38.792l0,-0.012l2.675,-14.419l-4.791,-5.966l-4.861,26.199c-2.686,14.466 -0.337,31.839 5.256,38.793l18.272,22.757Z" style="fill:#ccc;fill-rule:nonzero;"/></svg>