<?xml version="1.0" encoding="UTF-8" standalone="no"?><!DOCTYPE svg PUBLIC "-//W3C//DTD SVG 1.1//EN" "http://www.w3.org/Graphics/SVG/1.1/DTD/svg11.dtd"><svg width="100%" height="100%" viewBox="0 0 1450 1656" version="1.1" xmlns="http://www.w3.org/2000/svg" xmlns:xlink="http://www.w3.org/1999/xlink" xml:space="preserve" xmlns:serif="http://www.serif.com/" style="fill-rule:evenodd;clip-rule:evenodd;stroke-linejoin:round;stroke-miterlimit:2;"><g><path d="M135.606,636.311l157.589,0c-0,0 -1.872,735.642 -0,905c0.486,44.01 8.638,114.689 -41.376,114.689l-66.685,-0c-49.042,-0 -49.042,-70.679 -49.528,-114.689c-1.872,-169.358 -0,-905 -0,-905Z" style="fill:#fde575;fill-rule:nonzero;"/><path d="M136.092,231.922l157.589,0l-0,905c-0,60.71 -22.193,110 -49.528,110l-58.533,0c-27.335,0 -49.528,-49.29 -49.528,-110l-0,-905Z" style="fill:#fde575;fill-rule:nonzero;"/><g><path d="M204.443,231.922l-6.55,0c0.52,7.67 2.4,14.61 5.32,18.25l43.47,54.14l1.88,-10.13l-39.35,-49c-2.26,-2.82 -3.9,-7.64 -4.77,-13.25l-0,-0.01Z" style="fill:#ccc;fill-rule:nonzero;"/><path d="M209.213,245.162l39.35,49l2.3,-12.4c2.31,-12.44 0.29,-27.38 -4.52,-33.36l-13.24,-16.49l-28.66,0c0.87,5.6 2.5,10.43 4.77,13.25Z" style="fill:#fff;fill-rule:nonzero;"/></g><path d="M204.693,277.802l2.3,-12.4l-4.12,-5.13l-4.18,22.53c-2.31,12.44 -0.29,27.38 4.52,33.36l43.47,54.14l1.88,-10.13l-39.35,-49c-4.8,-5.98 -6.82,-20.92 -4.52,-33.36l-0,-0.01Z" style="fill:#ccc;fill-rule:nonzero;"/><path d="M246.343,314.412l-39.35,-49l-2.3,12.4c-2.31,12.44 -0.29,27.38 4.52,33.36l39.35,49l2.3,-12.4c2.31,-12.44 0.29,-27.38 -4.52,-33.36Z" style="fill:#fff;fill-rule:nonzero;"/><path d="M204.693,343.802l2.3,-12.4l-4.12,-5.13l-4.18,22.53c-2.31,12.44 -0.29,27.38 4.52,33.36l43.47,54.14l1.88,-10.13l-39.35,-49c-4.8,-5.98 -6.82,-20.92 -4.52,-33.36l-0,-0.01Z" style="fill:#ccc;fill-rule:nonzero;"/><path d="M246.343,380.412l-39.35,-49l-2.3,12.4c-2.31,12.44 -0.29,27.38 4.52,33.36l39.35,49l2.3,-12.4c2.31,-12.44 0.29,-27.38 -4.52,-33.36Z" style="fill:#fff;fill-rule:nonzero;"/><path d="M204.693,409.802l2.3,-12.4l-4.12,-5.13l-4.18,22.53c-2.31,12.44 -0.29,27.38 4.52,33.36l43.47,54.14l1.88,-10.13l-39.35,-49c-4.8,-5.98 -6.82,-20.92 -4.52,-33.36l-0,-0.01Z" style="fill:#ccc;fill-rule:nonzero;"/><path d="M246.343,446.412l-39.35,-49l-2.3,12.4c-2.31,12.44 -0.29,27.38 4.52,33.36l39.35,49l2.3,-12.4c2.31,-12.44 0.29,-27.38 -4.52,-33.36Z" style="fill:#fff;fill-rule:nonzero;"/><path d="M204.693,475.802l2.3,-12.4l-4.12,-5.13l-4.18,22.53c-2.31,12.44 -0.29,27.38 4.52,33.36l43.47,54.14l1.88,-10.13l-39.35,-49c-4.8,-5.98 -6.82,-20.92 -4.52,-33.36l-0,-0.01Z" style="fill:#ccc;fill-rule:nonzero;"/><path d="M246.343,512.412l-39.35,-49l-2.3,12.4c-2.31,12.44 -0.29,27.38 4.52,33.36l39.35,49l2.3,-12.4c2.31,-12.44 0.29,-27.38 -4.52,-33.36Z" style="fill:#fff;fill-rule:nonzero;"/><path d="M204.693,541.802l2.3,-12.4l-4.12,-5.13l-4.18,22.53c-2.31,12.44 -0.29,27.38 4.52,33.36l43.47,54.14l1.88,-10.13l-39.35,-49c-4.8,-5.98 -6.82,-20.92 -4.52,-33.36l-0,-0.01Z" style="fill:#ccc;fill-rule:nonzero;"/><path d="M246.343,578.412l-39.35,-49l-2.3,12.4c-2.31,12.44 -0.29,27.38 4.52,33.36l39.35,49l2.3,-12.4c2.31,-12.44 0.29,-27.38 -4.52,-33.36Z" style="fill:#fff;fill-rule:nonzero;"/><path d="M204.693,607.802l2.3,-12.4l-4.12,-5.13l-4.18,22.53c-2.31,12.44 -0.29,27.38 4.52,33.36l43.47,54.14l1.88,-10.13l-39.35,-49c-4.8,-5.98 -6.82,-20.92 -4.52,-33.36l-0,-0.01Z" style="fill:#ccc;fill-rule:nonzero;"/><path d="M246.343,644.412l-39.35,-49l-2.3,12.4c-2.31,12.44 -0.29,27.38 4.52,33.36l39.35,49l2.3,-12.4c2.31,-12.44 0.29,-27.38 -4.52,-33.36Z" style="fill:#fff;fill-rule:nonzero;"/><path d="M204.693,673.802l2.3,-12.4l-4.12,-5.13l-4.18,22.53c-2.31,12.44 -0.29,27.38 4.52,33.36l43.47,54.14l1.88,-10.13l-39.35,-49c-4.8,-5.98 -6.82,-20.92 -4.52,-33.36l-0,-0.01Z" style="fill:#ccc;fill-rule:nonzero;"/><path d="M246.343,710.412l-39.35,-49l-2.3,12.4c-2.31,12.44 -0.29,27.38 4.52,33.36l39.35,49l2.3,-12.4c2.31,-12.44 0.29,-27.38 -4.52,-33.36Z" style="fill:#fff;fill-rule:nonzero;"/><path d="M204.693,739.802l2.3,-12.4l-4.12,-5.13l-4.18,22.53c-2.31,12.44 -0.29,27.38 4.52,33.36l43.47,54.14l1.88,-10.13l-39.35,-49c-4.8,-5.98 -6.82,-20.92 -4.52,-33.36l-0,-0.01Z" style="fill:#ccc;fill-rule:nonzero;"/><path d="M246.343,776.412l-39.35,-49l-2.3,12.4c-2.31,12.44 -0.29,27.38 4.52,33.36l39.35,49l2.3,-12.4c2.31,-12.44 0.29,-27.38 -4.52,-33.36Z" style="fill:#fff;fill-rule:nonzero;"/><path d="M204.693,805.802l2.3,-12.4l-4.12,-5.13l-4.18,22.53c-2.31,12.44 -0.29,27.38 4.52,33.36l43.47,54.14l1.88,-10.13l-39.35,-49c-4.8,-5.98 -6.82,-20.92 -4.52,-33.36l-0,-0.01Z" style="fill:#ccc;fill-rule:nonzero;"/><path d="M246.343,842.412l-39.35,-49l-2.3,12.4c-2.31,12.44 -0.29,27.38 4.52,33.36l39.35,49l2.3,-12.4c2.31,-12.44 0.29,-27.38 -4.52,-33.36Z" style="fill:#fff;fill-rule:nonzero;"/><path d="M204.693,871.802l2.3,-12.4l-4.12,-5.13l-4.18,22.53c-2.31,12.44 -0.29,27.38 4.52,33.36l43.47,54.14l1.88,-10.13l-39.35,-49c-4.8,-5.98 -6.82,-20.92 -4.52,-33.36l-0,-0.01Z" style="fill:#ccc;fill-rule:nonzero;"/><path d="M246.343,908.412l-39.35,-49l-2.3,12.4c-2.31,12.44 -0.29,27.38 4.52,33.36l39.35,49l2.3,-12.4c2.31,-12.44 0.29,-27.38 -4.52,-33.36Z" style="fill:#fff;fill-rule:nonzero;"/><path d="M204.693,937.802l2.3,-12.4l-4.12,-5.13l-4.18,22.53c-2.31,12.44 -0.29,27.38 4.52,33.36l43.47,54.14l1.88,-10.13l-39.35,-49c-4.8,-5.98 -6.82,-20.92 -4.52,-33.36l-0,-0.01Z" style="fill:#ccc;fill-rule:nonzero;"/><path d="M246.343,974.412l-39.35,-49l-2.3,12.4c-2.31,12.44 -0.29,27.38 4.52,33.36l39.35,49l2.3,-12.4c2.31,-12.44 0.29,-27.38 -4.52,-33.36Z" style="fill:#fff;fill-rule:nonzero;"/><path d="M204.693,1003.8l2.3,-12.4l-4.12,-5.13l-4.18,22.53c-2.31,12.44 -0.29,27.38 4.52,33.36l43.47,54.14l1.88,-10.13l-39.35,-49c-4.8,-5.98 -6.82,-20.92 -4.52,-33.36l-0,-0.01Z" style="fill:#ccc;fill-rule:nonzero;"/><path d="M246.343,1040.41l-39.35,-49l-2.3,12.4c-2.31,12.44 -0.29,27.38 4.52,33.36l39.35,49l2.3,-12.4c2.31,-12.44 0.29,-27.38 -4.52,-33.36Z" style="fill:#fff;fill-rule:nonzero;"/><path d="M204.693,1069.8l2.3,-12.4l-4.12,-5.13l-4.18,22.53c-2.31,12.44 -0.29,27.38 4.52,33.36l43.47,54.14l1.88,-10.13l-39.35,-49c-4.8,-5.98 -6.82,-20.92 -4.52,-33.36l-0,-0.01Z" style="fill:#ccc;fill-rule:nonzero;"/><path d="M246.343,1106.41l-39.35,-49l-2.3,12.4c-2.31,12.44 -0.29,27.38 4.52,33.36l39.35,49l2.3,-12.4c2.31,-12.44 0.29,-27.38 -4.52,-33.36Z" style="fill:#fff;fill-rule:nonzero;"/><path d="M204.693,1135.8l2.3,-12.4l-4.12,-5.13l-4.18,22.53c-2.31,12.44 -0.29,27.38 4.52,33.36l43.47,54.14l1.88,-10.13l-39.35,-49c-4.8,-5.98 -6.82,-20.92 -4.52,-33.36l-0,-0.01Z" style="fill:#ccc;fill-rule:nonzero;"/><path d="M246.343,1172.41l-39.35,-49l-2.3,12.4c-2.31,12.44 -0.29,27.38 4.52,33.36l39.35,49l2.3,-12.4c2.31,-12.44 0.29,-27.38 -4.52,-33.36Z" style="fill:#fff;fill-rule:nonzero;"/><g><path d="M209.213,1235.16c-4.8,-5.98 -6.82,-20.92 -4.52,-33.36l2.3,-12.4l-4.12,-5.13l-4.18,22.53c-2.31,12.45 -0.29,27.38 4.52,33.36l5.42,6.75l10.01,0l-9.44,-11.75l0.01,0Z" style="fill:#ccc;fill-rule:nonzero;"/><path d="M209.213,1235.16l9.44,11.75l31.49,0c-0.92,-3.54 -2.2,-6.53 -3.8,-8.51l-39.35,-49l-2.3,12.4c-2.31,12.45 -0.29,27.38 4.52,33.36Z" style="fill:#fff;fill-rule:nonzero;"/></g><g><path d="M204.443,825.832l-6.55,0c0.52,7.67 2.4,14.61 5.32,18.25l43.47,54.14l1.88,-10.13l-39.35,-49c-2.26,-2.82 -3.9,-7.64 -4.77,-13.25l-0,-0.01Z" style="fill:#ccc;fill-rule:nonzero;"/><path d="M209.213,839.072l39.35,49l2.3,-12.4c2.31,-12.44 0.29,-27.38 -4.52,-33.36l-13.24,-16.49l-28.66,0c0.87,5.6 2.5,10.43 4.77,13.25Z" style="fill:#fff;fill-rule:nonzero;"/></g><path d="M204.693,871.712l2.3,-12.4l-4.12,-5.13l-4.18,22.53c-2.31,12.44 -0.29,27.38 4.52,33.36l43.47,54.14l1.88,-10.13l-39.35,-49c-4.8,-5.98 -6.82,-20.92 -4.52,-33.36l-0,-0.01Z" style="fill:#ccc;fill-rule:nonzero;"/><path d="M246.343,908.322l-39.35,-49l-2.3,12.4c-2.31,12.44 -0.29,27.38 4.52,33.36l39.35,49l2.3,-12.4c2.31,-12.44 0.29,-27.38 -4.52,-33.36Z" style="fill:#fff;fill-rule:nonzero;"/><path d="M204.693,937.712l2.3,-12.4l-4.12,-5.13l-4.18,22.53c-2.31,12.44 -0.29,27.38 4.52,33.36l43.47,54.14l1.88,-10.13l-39.35,-49c-4.8,-5.98 -6.82,-20.92 -4.52,-33.36l-0,-0.01Z" style="fill:#ccc;fill-rule:nonzero;"/><path d="M246.343,974.322l-39.35,-49l-2.3,12.4c-2.31,12.44 -0.29,27.38 4.52,33.36l39.35,49l2.3,-12.4c2.31,-12.44 0.29,-27.38 -4.52,-33.36Z" style="fill:#fff;fill-rule:nonzero;"/><path d="M204.693,1003.71l2.3,-12.4l-4.12,-5.13l-4.18,22.53c-2.31,12.44 -0.29,27.38 4.52,33.36l43.47,54.14l1.88,-10.13l-39.35,-49c-4.8,-5.98 -6.82,-20.92 -4.52,-33.36l-0,-0.01Z" style="fill:#ccc;fill-rule:nonzero;"/><path d="M246.343,1040.32l-39.35,-49l-2.3,12.4c-2.31,12.44 -0.29,27.38 4.52,33.36l39.35,49l2.3,-12.4c2.31,-12.44 0.29,-27.38 -4.52,-33.36Z" style="fill:#fff;fill-rule:nonzero;"/><path d="M204.693,1069.71l2.3,-12.4l-4.12,-5.13l-4.18,22.53c-2.31,12.44 -0.29,27.38 4.52,33.36l43.47,54.14l1.88,-10.13l-39.35,-49c-4.8,-5.98 -6.82,-20.92 -4.52,-33.36l-0,-0.01Z" style="fill:#ccc;fill-rule:nonzero;"/><path d="M246.343,1106.32l-39.35,-49l-2.3,12.4c-2.31,12.44 -0.29,27.38 4.52,33.36l39.35,49l2.3,-12.4c2.31,-12.44 0.29,-27.38 -4.52,-33.36Z" style="fill:#fff;fill-rule:nonzero;"/><path d="M204.693,1135.71l2.3,-12.4l-4.12,-5.13l-4.18,22.53c-2.31,12.44 -0.29,27.38 4.52,33.36l43.47,54.14l1.88,-10.13l-39.35,-49c-4.8,-5.98 -6.82,-20.92 -4.52,-33.36l-0,-0.01Z" style="fill:#ccc;fill-rule:nonzero;"/><path d="M246.343,1172.32l-39.35,-49l-2.3,12.4c-2.31,12.44 -0.29,27.38 4.52,33.36l39.35,49l2.3,-12.4c2.31,-12.44 0.29,-27.38 -4.52,-33.36Z" style="fill:#fff;fill-rule:nonzero;"/><path d="M204.693,1201.71l2.3,-12.4l-4.12,-5.13l-4.18,22.53c-2.31,12.44 -0.29,27.38 4.52,33.36l43.47,54.14l1.88,-10.13l-39.35,-49c-4.8,-5.98 -6.82,-20.92 -4.52,-33.36l-0,-0.01Z" style="fill:#ccc;fill-rule:nonzero;"/><path d="M246.343,1238.32l-39.35,-49l-2.3,12.4c-2.31,12.44 -0.29,27.38 4.52,33.36l39.35,49l2.3,-12.4c2.31,-12.44 0.29,-27.38 -4.52,-33.36Z" style="fill:#fff;fill-rule:nonzero;"/><path d="M204.693,1267.71l2.3,-12.4l-4.12,-5.13l-4.18,22.53c-2.31,12.44 -0.29,27.38 4.52,33.36l43.47,54.14l1.88,-10.13l-39.35,-49c-4.8,-5.98 -6.82,-20.92 -4.52,-33.36l-0,-0.01Z" style="fill:#ccc;fill-rule:nonzero;"/><path d="M246.343,1304.32l-39.35,-49l-2.3,12.4c-2.31,12.44 -0.29,27.38 4.52,33.36l39.35,49l2.3,-12.4c2.31,-12.44 0.29,-27.38 -4.52,-33.36Z" style="fill:#fff;fill-rule:nonzero;"/><path d="M204.693,1333.71l2.3,-12.4l-4.12,-5.13l-4.18,22.53c-2.31,12.44 -0.29,27.38 4.52,33.36l43.47,54.14l1.88,-10.13l-39.35,-49c-4.8,-5.98 -6.82,-20.92 -4.52,-33.36l-0,-0.01Z" style="fill:#ccc;fill-rule:nonzero;"/><path d="M246.343,1370.32l-39.35,-49l-2.3,12.4c-2.31,12.44 -0.29,27.38 4.52,33.36l39.35,49l2.3,-12.4c2.31,-12.44 0.29,-27.38 -4.52,-33.36Z" style="fill:#fff;fill-rule:nonzero;"/><path d="M204.693,1399.71l2.3,-12.4l-4.12,-5.13l-4.18,22.53c-2.31,12.44 -0.29,27.38 4.52,33.36l43.47,54.14l1.88,-10.13l-39.35,-49c-4.8,-5.98 -6.82,-20.92 -4.52,-33.36l-0,-0.01Z" style="fill:#ccc;fill-rule:nonzero;"/><path d="M246.343,1436.32l-39.35,-49l-2.3,12.4c-2.31,12.44 -0.29,27.38 4.52,33.36l39.35,49l2.3,-12.4c2.31,-12.44 0.29,-27.38 -4.52,-33.36Z" style="fill:#fff;fill-rule:nonzero;"/><path d="M204.693,1465.71l2.3,-12.4l-4.12,-5.13l-4.18,22.53c-2.31,12.44 -0.29,27.38 4.52,33.36l43.47,54.14l1.88,-10.13l-39.35,-49c-4.8,-5.98 -6.82,-20.92 -4.52,-33.36l-0,-0.01Z" style="fill:#ccc;fill-rule:nonzero;"/><path d="M246.343,1502.32l-39.35,-49l-2.3,12.4c-2.31,12.44 -0.29,27.38 4.52,33.36l39.35,49l2.3,-12.4c2.31,-12.44 0.29,-27.38 -4.52,-33.36Z" style="fill:#fff;fill-rule:nonzero;"/><path d="M204.693,1531.71l2.3,-12.4l-4.12,-5.13l-4.18,22.53c-2.31,12.44 -0.29,27.38 4.52,33.36l43.47,54.14l1.88,-10.13l-39.35,-49c-4.8,-5.98 -6.82,-20.92 -4.52,-33.36l-0,-0.01Z" style="fill:#ccc;fill-rule:nonzero;"/><path d="M246.343,1568.32l-39.35,-49l-2.3,12.4c-2.31,12.44 -0.29,27.38 4.52,33.36l39.35,49l2.3,-12.4c2.31,-12.44 0.29,-27.38 -4.52,-33.36Z" style="fill:#fff;fill-rule:nonzero;"/><path d="M206.249,1589.4l2.3,-12.4l-4.12,-5.13l-4.18,22.53c-2.31,12.44 -0.29,27.38 4.52,33.36l43.47,54.14l1.88,-10.13l-39.35,-49c-4.8,-5.98 -6.82,-20.92 -4.52,-33.36l0,-0.01Z" style="fill:#ccc;fill-rule:nonzero;"/><path d="M246.343,1634.32l-39.35,-49l-2.3,12.4c-2.31,12.44 -0.29,27.38 4.52,33.36l39.35,49l2.3,-12.4c2.31,-12.44 0.29,-27.38 -4.52,-33.36Z" style="fill:#fff;fill-rule:nonzero;"/><path d="M232.249,1655.4l2.3,-12.4l-4.12,-5.13l-4.18,22.53c-2.31,12.44 -0.29,27.38 4.52,33.36l43.47,54.14l1.88,-10.13l-39.35,-49c-4.8,-5.98 -6.82,-20.92 -4.52,-33.36l0,-0.01Z" style="fill:#ccc;fill-rule:nonzero;"/><path d="M273.899,1692.01l-39.35,-49l-2.3,12.4c-2.31,12.44 -0.29,27.38 4.52,33.36l39.35,49l2.3,-12.4c2.31,-12.44 0.29,-27.38 -4.52,-33.36Z" style="fill:#fff;fill-rule:nonzero;"/></g><path d="M1450,112.5c0,-62.09 -50.41,-112.5 -112.5,-112.5l-1225,0c-62.09,0 -112.5,50.41 -112.5,112.5l0,20c0,62.09 50.41,112.5 112.5,112.5l1225,0c62.09,0 112.5,-50.41 112.5,-112.5l0,-20Z" style="fill:#bfef88;"/><path d="M1450,112.5c0,-62.09 -50.41,-112.5 -112.5,-112.5l-1225,0c-62.09,0 -112.5,50.41 -112.5,112.5c0,62.09 50.41,112.5 112.5,112.5l1225,0c62.09,0 112.5,-50.41 112.5,-112.5Z" style="fill:#e5f68f;"/></svg>