<?xml version="1.0" encoding="UTF-8"?><svg id="Layer_1" xmlns="http://www.w3.org/2000/svg" viewBox="0 0 450 1209.87"><defs><style>.cls-1{fill:#fff;}.cls-2{fill:#e5f68f;}.cls-3{fill:#fde575;}.cls-4{fill:#bfef88;}.cls-5{fill:#ccc;}</style></defs><rect class="cls-4" width="450" height="195" rx="40" ry="40"/><rect class="cls-2" width="450" height="175" rx="40" ry="40"/><path class="cls-3" d="M49.95,194.87H399.95v905c0,60.71-49.29,110-110,110H159.95c-60.71,0-110-49.29-110-110V194.87h0Z"/><g><g><path class="cls-5" d="M204.62,194.87h-6.55c.52,7.67,2.4,14.61,5.32,18.25l43.47,54.14,1.88-10.13-39.35-49c-2.26-2.82-3.9-7.64-4.77-13.25Z"/><path class="cls-1" d="M209.39,208.11l39.35,49,2.3-12.4c2.31-12.44,.29-27.38-4.52-33.36l-13.24-16.49h-28.66c.87,5.6,2.5,10.43,4.77,13.25Z"/></g><path class="cls-5" d="M204.87,240.75l2.3-12.4-4.12-5.13-4.18,22.53c-2.31,12.44-.29,27.38,4.52,33.36l43.47,54.14,1.88-10.13-39.35-49c-4.8-5.98-6.82-20.92-4.52-33.36Z"/><path class="cls-1" d="M246.52,277.36l-39.35-49-2.3,12.4c-2.31,12.44-.29,27.38,4.52,33.36l39.35,49,2.3-12.4c2.31-12.44,.29-27.38-4.52-33.36Z"/><path class="cls-5" d="M204.87,306.75l2.3-12.4-4.12-5.13-4.18,22.53c-2.31,12.44-.29,27.38,4.52,33.36l43.47,54.14,1.88-10.13-39.35-49c-4.8-5.98-6.82-20.92-4.52-33.36Z"/><path class="cls-1" d="M246.52,343.36l-39.35-49-2.3,12.4c-2.31,12.44-.29,27.38,4.52,33.36l39.35,49,2.3-12.4c2.31-12.44,.29-27.38-4.52-33.36Z"/><path class="cls-5" d="M204.87,372.75l2.3-12.4-4.12-5.13-4.18,22.53c-2.31,12.44-.29,27.38,4.52,33.36l43.47,54.14,1.88-10.13-39.35-49c-4.8-5.98-6.82-20.92-4.52-33.36Z"/><path class="cls-1" d="M246.52,409.36l-39.35-49-2.3,12.4c-2.31,12.44-.29,27.38,4.52,33.36l39.35,49,2.3-12.4c2.31-12.44,.29-27.38-4.52-33.36Z"/><path class="cls-5" d="M204.87,438.75l2.3-12.4-4.12-5.13-4.18,22.53c-2.31,12.44-.29,27.38,4.52,33.36l43.47,54.14,1.88-10.13-39.35-49c-4.8-5.98-6.82-20.92-4.52-33.36Z"/><path class="cls-1" d="M246.52,475.36l-39.35-49-2.3,12.4c-2.31,12.44-.29,27.38,4.52,33.36l39.35,49,2.3-12.4c2.31-12.44,.29-27.38-4.52-33.36Z"/><path class="cls-5" d="M204.87,504.75l2.3-12.4-4.12-5.13-4.18,22.53c-2.31,12.44-.29,27.38,4.52,33.36l43.47,54.14,1.88-10.13-39.35-49c-4.8-5.98-6.82-20.92-4.52-33.36Z"/><path class="cls-1" d="M246.52,541.36l-39.35-49-2.3,12.4c-2.31,12.44-.29,27.38,4.52,33.36l39.35,49,2.3-12.4c2.31-12.44,.29-27.38-4.52-33.36Z"/><path class="cls-5" d="M204.87,570.75l2.3-12.4-4.12-5.13-4.18,22.53c-2.31,12.44-.29,27.38,4.52,33.36l43.47,54.14,1.88-10.13-39.35-49c-4.8-5.98-6.82-20.92-4.52-33.36Z"/><path class="cls-1" d="M246.52,607.36l-39.35-49-2.3,12.4c-2.31,12.44-.29,27.38,4.52,33.36l39.35,49,2.3-12.4c2.31-12.44,.29-27.38-4.52-33.36Z"/><path class="cls-5" d="M204.87,636.75l2.3-12.4-4.12-5.13-4.18,22.53c-2.31,12.44-.29,27.38,4.52,33.36l43.47,54.14,1.88-10.13-39.35-49c-4.8-5.98-6.82-20.92-4.52-33.36Z"/><path class="cls-1" d="M246.52,673.36l-39.35-49-2.3,12.4c-2.31,12.44-.29,27.38,4.52,33.36l39.35,49,2.3-12.4c2.31-12.44,.29-27.38-4.52-33.36Z"/><path class="cls-5" d="M204.87,702.75l2.3-12.4-4.12-5.13-4.18,22.53c-2.31,12.44-.29,27.38,4.52,33.36l43.47,54.14,1.88-10.13-39.35-49c-4.8-5.98-6.82-20.92-4.52-33.36Z"/><path class="cls-1" d="M246.52,739.36l-39.35-49-2.3,12.4c-2.31,12.44-.29,27.38,4.52,33.36l39.35,49,2.3-12.4c2.31-12.44,.29-27.38-4.52-33.36Z"/><path class="cls-5" d="M204.87,768.75l2.3-12.4-4.12-5.13-4.18,22.53c-2.31,12.44-.29,27.38,4.52,33.36l43.47,54.14,1.88-10.13-39.35-49c-4.8-5.98-6.82-20.92-4.52-33.36Z"/><path class="cls-1" d="M246.52,805.36l-39.35-49-2.3,12.4c-2.31,12.44-.29,27.38,4.52,33.36l39.35,49,2.3-12.4c2.31-12.44,.29-27.38-4.52-33.36Z"/><path class="cls-5" d="M204.87,834.75l2.3-12.4-4.12-5.13-4.18,22.53c-2.31,12.44-.29,27.38,4.52,33.36l43.47,54.14,1.88-10.13-39.35-49c-4.8-5.98-6.82-20.92-4.52-33.36Z"/><path class="cls-1" d="M246.52,871.36l-39.35-49-2.3,12.4c-2.31,12.44-.29,27.38,4.52,33.36l39.35,49,2.3-12.4c2.31-12.44,.29-27.38-4.52-33.36Z"/><path class="cls-5" d="M204.87,900.75l2.3-12.4-4.12-5.13-4.18,22.53c-2.31,12.44-.29,27.38,4.52,33.36l43.47,54.14,1.88-10.13-39.35-49c-4.8-5.98-6.82-20.92-4.52-33.36Z"/><path class="cls-1" d="M246.52,937.36l-39.35-49-2.3,12.4c-2.31,12.44-.29,27.38,4.52,33.36l39.35,49,2.3-12.4c2.31-12.44,.29-27.38-4.52-33.36Z"/><path class="cls-5" d="M204.87,966.75l2.3-12.4-4.12-5.13-4.18,22.53c-2.31,12.44-.29,27.38,4.52,33.36l43.47,54.14,1.88-10.13-39.35-49c-4.8-5.98-6.82-20.92-4.52-33.36Z"/><path class="cls-1" d="M246.52,1003.36l-39.35-49-2.3,12.4c-2.31,12.44-.29,27.38,4.52,33.36l39.35,49,2.3-12.4c2.31-12.44,.29-27.38-4.52-33.36Z"/><path class="cls-5" d="M204.87,1032.75l2.3-12.4-4.12-5.13-4.18,22.53c-2.31,12.44-.29,27.38,4.52,33.36l43.47,54.14,1.88-10.13-39.35-49c-4.8-5.98-6.82-20.92-4.52-33.36Z"/><path class="cls-1" d="M246.52,1069.36l-39.35-49-2.3,12.4c-2.31,12.44-.29,27.38,4.52,33.36l39.35,49,2.3-12.4c2.31-12.44,.29-27.38-4.52-33.36Z"/><path class="cls-5" d="M204.87,1098.75l2.3-12.4-4.12-5.13-4.18,22.53c-2.31,12.44-.29,27.38,4.52,33.36l43.47,54.14,1.88-10.13-39.35-49c-4.8-5.98-6.82-20.92-4.52-33.36Z"/><path class="cls-1" d="M246.52,1135.36l-39.35-49-2.3,12.4c-2.31,12.44-.29,27.38,4.52,33.36l39.35,49,2.3-12.4c2.31-12.44,.29-27.38-4.52-33.36Z"/><g><path class="cls-5" d="M209.39,1198.11c-4.8-5.98-6.82-20.92-4.52-33.36l2.3-12.4-4.12-5.13-4.18,22.53c-2.31,12.45-.29,27.38,4.52,33.36l5.42,6.75h10.01l-9.44-11.75Z"/><path class="cls-1" d="M209.39,1198.11l9.44,11.75h31.49c-.92-3.54-2.2-6.53-3.8-8.51l-39.35-49-2.3,12.4c-2.31,12.45-.29,27.38,4.52,33.36Z"/></g></g></svg>